<?xml version="1.0" encoding="utf-8"?>
<!-- Generator: Adobe Illustrator 28.1.0, SVG Export Plug-In . SVG Version: 6.00 Build 0)  -->
<svg version="1.1" xmlns="http://www.w3.org/2000/svg" xmlns:xlink="http://www.w3.org/1999/xlink" x="0px" y="0px"
	 viewBox="0 0 364.386 321.413" enable-background="new 0 0 364.386 321.413" xml:space="preserve">
<pattern  x="-113.516" y="553.851" width="72" height="72" patternUnits="userSpaceOnUse" id="USGS_7_Vineyard_2" viewBox="14.75 -72 72 72" overflow="visible">
	<g>
		<rect x="14.75" y="-72" fill="none" width="72" height="72"/>
		<line fill="none" stroke="#000000" stroke-width="2" stroke-dasharray="2,1" x1="15.25" y1="-1.5" x2="87.25" y2="-1.5"/>
		<line fill="none" stroke="#000000" stroke-width="2" stroke-dasharray="2,1" x1="15.25" y1="-4.5" x2="87.25" y2="-4.5"/>
		<line fill="none" stroke="#000000" stroke-width="2" stroke-dasharray="2,1" x1="15.25" y1="-7.5" x2="87.25" y2="-7.5"/>
		<line fill="none" stroke="#000000" stroke-width="2" stroke-dasharray="2,1" x1="15.25" y1="-10.5" x2="87.25" y2="-10.5"/>
		<line fill="none" stroke="#000000" stroke-width="2" stroke-dasharray="2,1" x1="15.25" y1="-13.5" x2="87.25" y2="-13.5"/>
		<line fill="none" stroke="#000000" stroke-width="2" stroke-dasharray="2,1" x1="15.25" y1="-16.5" x2="87.25" y2="-16.5"/>
		<line fill="none" stroke="#000000" stroke-width="2" stroke-dasharray="2,1" x1="15.25" y1="-19.5" x2="87.25" y2="-19.5"/>
		<line fill="none" stroke="#000000" stroke-width="2" stroke-dasharray="2,1" x1="15.25" y1="-22.5" x2="87.25" y2="-22.5"/>
		<line fill="none" stroke="#000000" stroke-width="2" stroke-dasharray="2,1" x1="15.25" y1="-25.5" x2="87.25" y2="-25.5"/>
		<line fill="none" stroke="#000000" stroke-width="2" stroke-dasharray="2,1" x1="15.25" y1="-28.5" x2="87.25" y2="-28.5"/>
		<line fill="none" stroke="#000000" stroke-width="2" stroke-dasharray="2,1" x1="15.25" y1="-31.5" x2="87.25" y2="-31.5"/>
		<line fill="none" stroke="#000000" stroke-width="2" stroke-dasharray="2,1" x1="15.25" y1="-34.5" x2="87.25" y2="-34.5"/>
		<line fill="none" stroke="#000000" stroke-width="2" stroke-dasharray="2,1" x1="15.25" y1="-37.5" x2="87.25" y2="-37.5"/>
		<line fill="none" stroke="#000000" stroke-width="2" stroke-dasharray="2,1" x1="15.25" y1="-40.5" x2="87.25" y2="-40.5"/>
		<line fill="none" stroke="#000000" stroke-width="2" stroke-dasharray="2,1" x1="15.25" y1="-43.5" x2="87.25" y2="-43.5"/>
		<line fill="none" stroke="#000000" stroke-width="2" stroke-dasharray="2,1" x1="15.25" y1="-46.5" x2="87.25" y2="-46.5"/>
		<line fill="none" stroke="#000000" stroke-width="2" stroke-dasharray="2,1" x1="15.25" y1="-49.5" x2="87.25" y2="-49.5"/>
		<line fill="none" stroke="#000000" stroke-width="2" stroke-dasharray="2,1" x1="15.25" y1="-52.5" x2="87.25" y2="-52.5"/>
		<line fill="none" stroke="#000000" stroke-width="2" stroke-dasharray="2,1" x1="15.25" y1="-55.5" x2="87.25" y2="-55.5"/>
		<line fill="none" stroke="#000000" stroke-width="2" stroke-dasharray="2,1" x1="15.25" y1="-58.5" x2="87.25" y2="-58.5"/>
		<line fill="none" stroke="#000000" stroke-width="2" stroke-dasharray="2,1" x1="15.25" y1="-61.5" x2="87.25" y2="-61.5"/>
		<line fill="none" stroke="#000000" stroke-width="2" stroke-dasharray="2,1" x1="15.25" y1="-64.5" x2="87.25" y2="-64.5"/>
		<line fill="none" stroke="#000000" stroke-width="2" stroke-dasharray="2,1" x1="15.25" y1="-67.5" x2="87.25" y2="-67.5"/>
		<line fill="none" stroke="#000000" stroke-width="2" stroke-dasharray="2,1" x1="15.25" y1="-70.5" x2="87.25" y2="-70.5"/>
		<line fill="none" stroke="#000000" stroke-width="2" stroke-dasharray="2,1" x1="2" y1="-67.5" x2="0" y2="-67.5"/>
	</g>
</pattern>
<g id="white_background">
	<rect fill="#FFFFFF" width="364.386" height="321.326"/>
</g>
<g id="lines">
	<g>
		<g>
			<line fill="none" stroke="#000000" stroke-width="0.5" x1="353.606" y1="39.895" x2="352.606" y2="39.895"/>
			
				<line fill="none" stroke="#000000" stroke-width="0.5" stroke-dasharray="2.0104,2.0104" x1="350.595" y1="39.895" x2="46.024" y2="39.895"/>
			<line fill="none" stroke="#000000" stroke-width="0.5" x1="45.019" y1="39.895" x2="44.019" y2="39.895"/>
		</g>
	</g>
	<g>
		<g>
			<line fill="none" stroke="#000000" stroke-width="0.5" x1="353.606" y1="68.448" x2="352.606" y2="68.448"/>
			
				<line fill="none" stroke="#000000" stroke-width="0.5" stroke-dasharray="2.0104,2.0104" x1="350.595" y1="68.448" x2="46.024" y2="68.448"/>
			<line fill="none" stroke="#000000" stroke-width="0.5" x1="45.019" y1="68.448" x2="44.019" y2="68.448"/>
		</g>
	</g>
	<g>
		<g>
			<line fill="none" stroke="#000000" stroke-width="0.5" x1="353.606" y1="97" x2="352.606" y2="97"/>
			
				<line fill="none" stroke="#000000" stroke-width="0.5" stroke-dasharray="2.0104,2.0104" x1="350.595" y1="97" x2="46.024" y2="97"/>
			<line fill="none" stroke="#000000" stroke-width="0.5" x1="45.019" y1="97" x2="44.019" y2="97"/>
		</g>
	</g>
	<g>
		<g>
			<line fill="none" stroke="#000000" stroke-width="0.5" x1="353.606" y1="125.553" x2="352.606" y2="125.553"/>
			
				<line fill="none" stroke="#000000" stroke-width="0.5" stroke-dasharray="2.0104,2.0104" x1="350.595" y1="125.553" x2="46.024" y2="125.553"/>
			<line fill="none" stroke="#000000" stroke-width="0.5" x1="45.019" y1="125.553" x2="44.019" y2="125.553"/>
		</g>
	</g>
	<g>
		<g>
			<line fill="none" stroke="#000000" stroke-width="0.5" x1="353.606" y1="154.106" x2="352.606" y2="154.106"/>
			
				<line fill="none" stroke="#000000" stroke-width="0.5" stroke-dasharray="2.0104,2.0104" x1="350.595" y1="154.106" x2="46.024" y2="154.106"/>
			<line fill="none" stroke="#000000" stroke-width="0.5" x1="45.019" y1="154.106" x2="44.019" y2="154.106"/>
		</g>
	</g>
	<g>
		<g>
			<line fill="none" stroke="#000000" stroke-width="0.5" x1="353.606" y1="182.658" x2="352.606" y2="182.658"/>
			
				<line fill="none" stroke="#000000" stroke-width="0.5" stroke-dasharray="2.0104,2.0104" x1="350.595" y1="182.658" x2="46.024" y2="182.658"/>
			<line fill="none" stroke="#000000" stroke-width="0.5" x1="45.019" y1="182.658" x2="44.019" y2="182.658"/>
		</g>
	</g>
	<g>
		<g>
			<line fill="none" stroke="#000000" stroke-width="0.5" x1="353.606" y1="211.211" x2="352.606" y2="211.211"/>
			
				<line fill="none" stroke="#000000" stroke-width="0.5" stroke-dasharray="2.0104,2.0104" x1="350.595" y1="211.211" x2="46.024" y2="211.211"/>
			<line fill="none" stroke="#000000" stroke-width="0.5" x1="45.019" y1="211.211" x2="44.019" y2="211.211"/>
		</g>
	</g>
	<rect x="44.019" y="39.895" fill="none" stroke="#000000" stroke-width="0.5" width="309.586" height="199.868"/>
	<g>
		<line fill="none" stroke="#000000" stroke-width="0.5" x1="44.019" y1="239.763" x2="44.019" y2="242.904"/>
		<line fill="none" stroke="#000000" stroke-width="0.5" x1="105.936" y1="239.763" x2="105.936" y2="242.904"/>
		<line fill="none" stroke="#000000" stroke-width="0.5" x1="167.854" y1="239.763" x2="167.854" y2="242.904"/>
		<line fill="none" stroke="#000000" stroke-width="0.5" x1="229.771" y1="239.763" x2="229.771" y2="242.904"/>
		<line fill="none" stroke="#000000" stroke-width="0.5" x1="291.688" y1="239.763" x2="291.688" y2="242.904"/>
		<line fill="none" stroke="#000000" stroke-width="0.5" x1="353.606" y1="239.763" x2="353.606" y2="242.904"/>
	</g>
	<line fill="none" stroke="#000000" stroke-width="0.5" x1="44.019" y1="39.895" x2="40.519" y2="39.895"/>
	<line fill="none" stroke="#000000" stroke-width="0.5" x1="44.019" y1="68.448" x2="40.519" y2="68.448"/>
	<line fill="none" stroke="#000000" stroke-width="0.5" x1="44.019" y1="97" x2="40.519" y2="97"/>
	<line fill="none" stroke="#000000" stroke-width="0.5" x1="44.019" y1="125.553" x2="40.519" y2="125.553"/>
	<line fill="none" stroke="#000000" stroke-width="0.5" x1="44.019" y1="154.106" x2="40.519" y2="154.106"/>
	<line fill="none" stroke="#000000" stroke-width="0.5" x1="44.019" y1="182.658" x2="40.519" y2="182.658"/>
	<line fill="none" stroke="#000000" stroke-width="0.5" x1="44.019" y1="211.211" x2="40.519" y2="211.211"/>
	<line fill="none" stroke="#000000" stroke-width="0.5" x1="44.019" y1="239.763" x2="40.519" y2="239.763"/>
</g>
<g id="bars">
	<rect x="62.194" y="177.58" stroke="#000000" stroke-width="0.5" width="12.792" height="62.184"/>
	<g>
		<rect x="74.981" y="80.56" fill="#FFFFFF" width="12.793" height="159.204"/>
		<rect x="74.981" y="80.56" fill="#FFFFFF" width="12.793" height="159.204"/>
		<rect x="74.981" y="80.56" fill="none" stroke="#000000" stroke-width="0.5" width="12.793" height="159.204"/>
	</g>
	<rect x="123.944" y="62.58" stroke="#000000" stroke-width="0.5" width="12.792" height="177.184"/>
	<g>
		<rect x="136.731" y="154.06" fill="#FFFFFF" width="12.793" height="85.703"/>
		<rect x="136.731" y="154.06" fill="#FFFFFF" width="12.793" height="85.703"/>
		<rect x="136.731" y="154.06" fill="none" stroke="#000000" stroke-width="0.5" width="12.793" height="85.703"/>
	</g>
	<rect x="185.694" y="151.58" stroke="#000000" stroke-width="0.5" width="12.793" height="88.184"/>
	<g>
		<rect x="198.481" y="211.56" fill="#FFFFFF" width="12.793" height="28.203"/>
		<rect x="198.481" y="211.56" fill="#FFFFFF" width="12.793" height="28.203"/>
		<rect x="198.481" y="211.56" fill="none" stroke="#000000" stroke-width="0.5" width="12.793" height="28.203"/>
	</g>
	<rect x="247.444" y="156.58" stroke="#000000" stroke-width="0.5" width="12.793" height="83.184"/>
	<g>
		<rect x="260.231" y="196.56" fill="#FFFFFF" width="12.793" height="43.203"/>
		<rect x="260.231" y="196.56" fill="#FFFFFF" width="12.793" height="43.203"/>
		<rect x="260.231" y="196.56" fill="none" stroke="#000000" stroke-width="0.5" width="12.793" height="43.203"/>
	</g>
	<rect x="309.194" y="140.08" stroke="#000000" stroke-width="0.5" width="12.793" height="99.684"/>
	<g>
		<rect x="321.981" y="168.56" fill="#FFFFFF" width="12.795" height="71.203"/>
		<rect x="321.981" y="168.56" fill="#FFFFFF" width="12.795" height="71.203"/>
		<rect x="321.981" y="168.56" fill="none" stroke="#000000" stroke-width="0.5" width="12.795" height="71.203"/>
	</g>
	<g>
		<rect x="149.989" y="294.336" width="9.922" height="9.921"/>
		<pattern  id="SVGID_1_" xlink:href="#USGS_7_Vineyard_2" patternTransform="matrix(1 0 0 1 31.667 13.667)">
		</pattern>
		<rect x="149.989" y="294.336" fill="url(#SVGID_1_)" width="9.922" height="9.921"/>
		<rect x="149.989" y="294.336" fill="none" stroke="#000000" stroke-width="0.5" width="9.922" height="9.921"/>
	</g>
	<rect x="145.49" y="289.962" fill="none" stroke="#000000" stroke-width="0.5" width="106.708" height="19.961"/>
	<g>
		<line fill="none" stroke="#000000" stroke-width="0.652" x1="84.913" y1="80.56" x2="87.774" y2="84.159"/>
		<line fill="none" stroke="#000000" stroke-width="0.652" x1="80.538" y1="80.56" x2="87.774" y2="89.701"/>
		<line fill="none" stroke="#000000" stroke-width="0.652" x1="76.164" y1="80.56" x2="87.774" y2="95.242"/>
		<line fill="none" stroke="#000000" stroke-width="0.652" x1="74.957" y1="84.573" x2="87.774" y2="100.784"/>
		<line fill="none" stroke="#000000" stroke-width="0.652" x1="74.957" y1="90.114" x2="87.774" y2="106.326"/>
		<line fill="none" stroke="#000000" stroke-width="0.652" x1="74.957" y1="95.656" x2="87.774" y2="111.867"/>
		<line fill="none" stroke="#000000" stroke-width="0.652" x1="74.957" y1="101.198" x2="87.774" y2="117.409"/>
		<line fill="none" stroke="#000000" stroke-width="0.652" x1="74.957" y1="106.739" x2="87.774" y2="122.951"/>
		<line fill="none" stroke="#000000" stroke-width="0.652" x1="74.957" y1="112.281" x2="87.774" y2="128.492"/>
		<line fill="none" stroke="#000000" stroke-width="0.652" x1="74.957" y1="117.823" x2="87.774" y2="134.034"/>
		<line fill="none" stroke="#000000" stroke-width="0.652" x1="74.957" y1="123.364" x2="87.774" y2="139.576"/>
		<line fill="none" stroke="#000000" stroke-width="0.652" x1="74.957" y1="128.906" x2="87.774" y2="145.117"/>
		<line fill="none" stroke="#000000" stroke-width="0.652" x1="74.957" y1="134.448" x2="87.774" y2="150.659"/>
		<line fill="none" stroke="#000000" stroke-width="0.652" x1="74.957" y1="139.989" x2="87.774" y2="156.201"/>
		<line fill="none" stroke="#000000" stroke-width="0.652" x1="74.957" y1="145.531" x2="87.774" y2="161.742"/>
		<line fill="none" stroke="#000000" stroke-width="0.652" x1="74.957" y1="151.073" x2="87.774" y2="167.284"/>
		<line fill="none" stroke="#000000" stroke-width="0.652" x1="74.957" y1="156.614" x2="87.774" y2="172.826"/>
		<line fill="none" stroke="#000000" stroke-width="0.652" x1="74.957" y1="162.156" x2="87.774" y2="178.367"/>
		<line fill="none" stroke="#000000" stroke-width="0.652" x1="74.957" y1="167.698" x2="87.774" y2="183.909"/>
		<line fill="none" stroke="#000000" stroke-width="0.652" x1="74.957" y1="173.239" x2="87.774" y2="189.451"/>
		<line fill="none" stroke="#000000" stroke-width="0.652" x1="74.957" y1="178.781" x2="87.774" y2="194.993"/>
		<line fill="none" stroke="#000000" stroke-width="0.652" x1="74.957" y1="184.323" x2="87.774" y2="200.534"/>
		<line fill="none" stroke="#000000" stroke-width="0.652" x1="74.957" y1="189.865" x2="87.774" y2="206.076"/>
		<line fill="none" stroke="#000000" stroke-width="0.652" x1="74.957" y1="195.406" x2="87.774" y2="211.618"/>
		<line fill="none" stroke="#000000" stroke-width="0.652" x1="74.957" y1="200.948" x2="87.774" y2="217.159"/>
		<line fill="none" stroke="#000000" stroke-width="0.652" x1="74.957" y1="206.49" x2="87.774" y2="222.701"/>
		<line fill="none" stroke="#000000" stroke-width="0.652" x1="74.957" y1="212.031" x2="87.774" y2="228.243"/>
		<line fill="none" stroke="#000000" stroke-width="0.652" x1="74.957" y1="217.573" x2="87.774" y2="233.784"/>
		<line fill="none" stroke="#000000" stroke-width="0.652" x1="74.957" y1="223.115" x2="87.774" y2="239.326"/>
		<line fill="none" stroke="#000000" stroke-width="0.652" x1="74.957" y1="228.656" x2="83.725" y2="239.763"/>
		<line fill="none" stroke="#000000" stroke-width="0.652" x1="74.957" y1="234.198" x2="79.35" y2="239.763"/>
		<path fill="none" stroke="#000000" stroke-width="0.652" d="M74.957,239.74l0.019,0.024L74.957,239.74z"/>
	</g>
	<g>
		<line fill="none" stroke="#000000" stroke-width="0.652" x1="147.82" y1="154.06" x2="149.524" y2="156.201"/>
		<line fill="none" stroke="#000000" stroke-width="0.652" x1="143.445" y1="154.06" x2="149.524" y2="161.742"/>
		<line fill="none" stroke="#000000" stroke-width="0.652" x1="139.071" y1="154.06" x2="149.524" y2="167.284"/>
		<line fill="none" stroke="#000000" stroke-width="0.652" x1="136.713" y1="156.614" x2="149.524" y2="172.826"/>
		<line fill="none" stroke="#000000" stroke-width="0.652" x1="136.713" y1="162.156" x2="149.524" y2="178.367"/>
		<line fill="none" stroke="#000000" stroke-width="0.652" x1="136.713" y1="167.698" x2="149.524" y2="183.909"/>
		<line fill="none" stroke="#000000" stroke-width="0.652" x1="136.713" y1="173.239" x2="149.524" y2="189.451"/>
		<line fill="none" stroke="#000000" stroke-width="0.652" x1="136.713" y1="178.781" x2="149.524" y2="194.993"/>
		<line fill="none" stroke="#000000" stroke-width="0.652" x1="136.713" y1="184.323" x2="149.524" y2="200.534"/>
		<line fill="none" stroke="#000000" stroke-width="0.652" x1="136.713" y1="189.865" x2="149.524" y2="206.076"/>
		<line fill="none" stroke="#000000" stroke-width="0.652" x1="136.713" y1="195.406" x2="149.524" y2="211.618"/>
		<line fill="none" stroke="#000000" stroke-width="0.652" x1="136.713" y1="200.948" x2="149.524" y2="217.159"/>
		<line fill="none" stroke="#000000" stroke-width="0.652" x1="136.713" y1="206.49" x2="149.524" y2="222.701"/>
		<line fill="none" stroke="#000000" stroke-width="0.652" x1="136.713" y1="212.031" x2="149.524" y2="228.243"/>
		<line fill="none" stroke="#000000" stroke-width="0.652" x1="136.713" y1="217.573" x2="149.524" y2="233.784"/>
		<line fill="none" stroke="#000000" stroke-width="0.652" x1="136.713" y1="223.115" x2="149.524" y2="239.326"/>
		<line fill="none" stroke="#000000" stroke-width="0.652" x1="136.713" y1="228.656" x2="145.48" y2="239.763"/>
		<line fill="none" stroke="#000000" stroke-width="0.652" x1="136.713" y1="234.198" x2="141.106" y2="239.763"/>
		<path fill="none" stroke="#000000" stroke-width="0.652" d="M136.713,239.74l0.019,0.024L136.713,239.74z"/>
	</g>
	<g>
		<line fill="none" stroke="#000000" stroke-width="0.652" x1="211.274" y1="211.56" x2="211.274" y2="211.618"/>
		<line fill="none" stroke="#000000" stroke-width="0.652" x1="206.845" y1="211.56" x2="211.274" y2="217.159"/>
		<line fill="none" stroke="#000000" stroke-width="0.652" x1="202.471" y1="211.56" x2="211.274" y2="222.701"/>
		<line fill="none" stroke="#000000" stroke-width="0.652" x1="198.468" y1="212.031" x2="211.274" y2="228.243"/>
		<line fill="none" stroke="#000000" stroke-width="0.652" x1="198.468" y1="217.573" x2="211.274" y2="233.784"/>
		<line fill="none" stroke="#000000" stroke-width="0.652" x1="198.468" y1="223.115" x2="211.274" y2="239.326"/>
		<line fill="none" stroke="#000000" stroke-width="0.652" x1="198.468" y1="228.656" x2="207.236" y2="239.763"/>
		<line fill="none" stroke="#000000" stroke-width="0.652" x1="198.468" y1="234.198" x2="202.861" y2="239.763"/>
		<path fill="none" stroke="#000000" stroke-width="0.652" d="M198.468,239.74l0.019,0.024L198.468,239.74z"/>
	</g>
	<g>
		<g>
			<rect x="207.989" y="294.336" fill="#FFFFFF" width="9.922" height="9.921"/>
			<rect x="207.989" y="294.336" fill="#FFFFFF" width="9.922" height="9.921"/>
			<rect x="207.989" y="294.336" fill="none" stroke="#000000" stroke-width="0.5" width="9.922" height="9.921"/>
		</g>
		<line fill="none" stroke="#000000" stroke-width="0.652" x1="216.525" y1="294.336" x2="217.911" y2="296.091"/>
		<line fill="none" stroke="#000000" stroke-width="0.652" x1="212.151" y1="294.336" x2="217.911" y2="301.633"/>
		<line fill="none" stroke="#000000" stroke-width="0.652" x1="208.069" y1="294.707" x2="215.608" y2="304.257"/>
		<line fill="none" stroke="#000000" stroke-width="0.652" x1="208.069" y1="300.249" x2="211.233" y2="304.257"/>
	</g>
	<g>
		<line fill="none" stroke="#000000" stroke-width="0.652" x1="269.883" y1="196.56" x2="273.024" y2="200.534"/>
		<line fill="none" stroke="#000000" stroke-width="0.652" x1="265.509" y1="196.56" x2="273.024" y2="206.076"/>
		<line fill="none" stroke="#000000" stroke-width="0.652" x1="261.134" y1="196.56" x2="273.024" y2="211.618"/>
		<line fill="none" stroke="#000000" stroke-width="0.652" x1="260.223" y1="200.948" x2="273.024" y2="217.159"/>
		<line fill="none" stroke="#000000" stroke-width="0.652" x1="260.223" y1="206.49" x2="273.024" y2="222.701"/>
		<line fill="none" stroke="#000000" stroke-width="0.652" x1="260.223" y1="212.031" x2="273.024" y2="228.243"/>
		<line fill="none" stroke="#000000" stroke-width="0.652" x1="260.223" y1="217.573" x2="273.024" y2="233.784"/>
		<line fill="none" stroke="#000000" stroke-width="0.652" x1="260.223" y1="223.115" x2="273.024" y2="239.326"/>
		<line fill="none" stroke="#000000" stroke-width="0.652" x1="260.223" y1="228.656" x2="268.991" y2="239.763"/>
		<line fill="none" stroke="#000000" stroke-width="0.652" x1="260.223" y1="234.198" x2="264.617" y2="239.763"/>
		<path fill="none" stroke="#000000" stroke-width="0.652" d="M260.223,239.74l0.019,0.024L260.223,239.74z"/>
	</g>
	<g>
		<line fill="none" stroke="#000000" stroke-width="0.652" x1="331.409" y1="168.56" x2="334.776" y2="172.826"/>
		<line fill="none" stroke="#000000" stroke-width="0.652" x1="327.034" y1="168.56" x2="334.776" y2="178.367"/>
		<line fill="none" stroke="#000000" stroke-width="0.652" x1="322.66" y1="168.56" x2="334.776" y2="183.909"/>
		<line fill="none" stroke="#000000" stroke-width="0.652" x1="321.979" y1="173.239" x2="334.776" y2="189.451"/>
		<line fill="none" stroke="#000000" stroke-width="0.652" x1="321.979" y1="178.781" x2="334.776" y2="194.993"/>
		<line fill="none" stroke="#000000" stroke-width="0.652" x1="321.979" y1="184.323" x2="334.776" y2="200.534"/>
		<line fill="none" stroke="#000000" stroke-width="0.652" x1="321.979" y1="189.865" x2="334.776" y2="206.076"/>
		<line fill="none" stroke="#000000" stroke-width="0.652" x1="321.979" y1="195.406" x2="334.776" y2="211.618"/>
		<line fill="none" stroke="#000000" stroke-width="0.652" x1="321.979" y1="200.948" x2="334.776" y2="217.159"/>
		<line fill="none" stroke="#000000" stroke-width="0.652" x1="321.979" y1="206.49" x2="334.776" y2="222.701"/>
		<line fill="none" stroke="#000000" stroke-width="0.652" x1="321.979" y1="212.031" x2="334.776" y2="228.243"/>
		<line fill="none" stroke="#000000" stroke-width="0.652" x1="321.979" y1="217.573" x2="334.776" y2="233.784"/>
		<line fill="none" stroke="#000000" stroke-width="0.652" x1="321.979" y1="223.115" x2="334.776" y2="239.326"/>
		<line fill="none" stroke="#000000" stroke-width="0.652" x1="321.979" y1="228.656" x2="330.747" y2="239.763"/>
		<line fill="none" stroke="#000000" stroke-width="0.652" x1="321.979" y1="234.198" x2="326.372" y2="239.763"/>
		<path fill="none" stroke="#000000" stroke-width="0.652" d="M321.979,239.74l0.019,0.024L321.979,239.74z"/>
	</g>
</g>
<g id="text">
	<g>
		<path d="M72.018,251.88l0.883,0.124c-0.097,0.655-0.344,1.168-0.741,1.539c-0.397,0.37-0.885,0.556-1.464,0.556
			c-0.725,0-1.308-0.255-1.748-0.766c-0.441-0.51-0.661-1.241-0.661-2.193c0-0.616,0.095-1.155,0.284-1.617
			c0.19-0.462,0.478-0.809,0.866-1.039c0.387-0.231,0.809-0.347,1.264-0.347c0.575,0,1.046,0.156,1.412,0.47s0.6,0.759,0.703,1.335
			l-0.873,0.146c-0.083-0.384-0.23-0.672-0.441-0.865c-0.211-0.193-0.466-0.29-0.765-0.29c-0.453,0-0.82,0.175-1.103,0.523
			c-0.283,0.35-0.424,0.901-0.424,1.657c0,0.767,0.136,1.323,0.409,1.67c0.273,0.348,0.629,0.521,1.067,0.521
			c0.353,0,0.647-0.116,0.883-0.35C71.805,252.721,71.955,252.364,72.018,251.88z"/>
		<path d="M77.126,253.266c-0.333,0.304-0.653,0.519-0.96,0.645c-0.308,0.125-0.637,0.188-0.99,0.188
			c-0.582,0-1.029-0.153-1.342-0.459c-0.312-0.307-0.469-0.697-0.469-1.174c0-0.279,0.059-0.534,0.177-0.766
			c0.118-0.23,0.273-0.416,0.464-0.556c0.191-0.14,0.407-0.245,0.646-0.317c0.176-0.05,0.442-0.098,0.798-0.145
			c0.725-0.093,1.258-0.204,1.601-0.333c0.003-0.133,0.005-0.217,0.005-0.253c0-0.394-0.085-0.671-0.254-0.832
			c-0.229-0.219-0.57-0.328-1.022-0.328c-0.422,0-0.734,0.08-0.935,0.239c-0.202,0.159-0.35,0.441-0.447,0.847l-0.877-0.129
			c0.08-0.405,0.211-0.731,0.394-0.98c0.183-0.249,0.447-0.44,0.793-0.575c0.346-0.134,0.746-0.201,1.202-0.201
			c0.452,0,0.82,0.058,1.103,0.172c0.282,0.114,0.49,0.259,0.624,0.433c0.133,0.174,0.226,0.393,0.279,0.658
			c0.03,0.164,0.045,0.461,0.045,0.891v1.289c0,0.899,0.019,1.468,0.057,1.706s0.114,0.466,0.227,0.685h-0.938
			C77.212,253.769,77.152,253.534,77.126,253.266z M77.05,251.106c-0.326,0.144-0.814,0.266-1.466,0.365
			c-0.369,0.058-0.63,0.122-0.783,0.193c-0.153,0.072-0.271,0.177-0.354,0.314c-0.083,0.138-0.125,0.291-0.125,0.459
			c0,0.258,0.091,0.473,0.272,0.645s0.446,0.258,0.795,0.258c0.346,0,0.653-0.081,0.923-0.244c0.269-0.163,0.467-0.386,0.593-0.668
			c0.097-0.219,0.145-0.541,0.145-0.967V251.106z"/>
		<path d="M79.34,253.97v-5.704h0.808v0.864c0.206-0.404,0.396-0.671,0.571-0.8c0.174-0.129,0.367-0.193,0.576-0.193
			c0.302,0,0.61,0.104,0.922,0.312l-0.309,0.896c-0.219-0.139-0.439-0.209-0.658-0.209c-0.196,0-0.373,0.063-0.529,0.19
			s-0.268,0.304-0.334,0.529c-0.1,0.344-0.15,0.72-0.15,1.128v2.986H79.34z"/>
		<path d="M51.806,269.355v-7.89h0.818v0.741c0.193-0.29,0.411-0.508,0.653-0.652c0.243-0.146,0.537-0.218,0.883-0.218
			c0.452,0,0.851,0.125,1.197,0.376c0.346,0.251,0.606,0.604,0.783,1.061c0.176,0.457,0.265,0.957,0.265,1.502
			c0,0.583-0.097,1.108-0.292,1.576c-0.194,0.467-0.477,0.825-0.848,1.074c-0.371,0.249-0.761,0.373-1.17,0.373
			c-0.299,0-0.567-0.068-0.805-0.204s-0.433-0.308-0.586-0.516v2.776H51.806z M52.619,264.349c0,0.734,0.138,1.277,0.414,1.628
			c0.276,0.351,0.61,0.526,1.002,0.526c0.399,0,0.741-0.182,1.025-0.545s0.426-0.927,0.426-1.689c0-0.727-0.139-1.271-0.417-1.633
			c-0.277-0.361-0.609-0.543-0.995-0.543c-0.383,0-0.721,0.193-1.015,0.578S52.619,263.616,52.619,264.349z"/>
		<path d="M60.943,266.467c-0.333,0.304-0.653,0.519-0.96,0.645c-0.308,0.125-0.637,0.188-0.99,0.188
			c-0.582,0-1.029-0.153-1.342-0.459c-0.312-0.307-0.469-0.697-0.469-1.174c0-0.279,0.059-0.534,0.177-0.766
			c0.118-0.23,0.273-0.416,0.464-0.556c0.191-0.14,0.407-0.245,0.646-0.317c0.176-0.05,0.442-0.098,0.798-0.145
			c0.725-0.093,1.258-0.204,1.601-0.333c0.003-0.133,0.005-0.217,0.005-0.253c0-0.394-0.085-0.671-0.254-0.832
			c-0.229-0.219-0.57-0.328-1.022-0.328c-0.422,0-0.734,0.08-0.935,0.239c-0.202,0.159-0.35,0.441-0.447,0.847l-0.877-0.129
			c0.08-0.405,0.211-0.731,0.394-0.98c0.183-0.249,0.447-0.44,0.793-0.575c0.346-0.134,0.746-0.201,1.202-0.201
			c0.452,0,0.82,0.058,1.103,0.172c0.282,0.114,0.49,0.259,0.624,0.433c0.133,0.174,0.226,0.393,0.279,0.658
			c0.03,0.164,0.045,0.461,0.045,0.891v1.289c0,0.899,0.019,1.468,0.057,1.706s0.114,0.466,0.227,0.685h-0.938
			C61.029,266.97,60.969,266.734,60.943,266.467z M60.868,264.306c-0.326,0.144-0.814,0.266-1.466,0.365
			c-0.369,0.058-0.63,0.122-0.783,0.193c-0.153,0.072-0.271,0.177-0.354,0.314c-0.083,0.138-0.125,0.291-0.125,0.459
			c0,0.258,0.091,0.473,0.272,0.645s0.446,0.258,0.795,0.258c0.346,0,0.653-0.081,0.923-0.244c0.269-0.163,0.467-0.386,0.593-0.668
			c0.097-0.219,0.145-0.541,0.145-0.967V264.306z"/>
		<path d="M62.809,265.467l0.888-0.15c0.05,0.384,0.188,0.678,0.417,0.881c0.228,0.205,0.546,0.307,0.955,0.307
			c0.412,0,0.718-0.091,0.917-0.271c0.2-0.181,0.299-0.393,0.299-0.637c0-0.218-0.088-0.39-0.264-0.516
			c-0.123-0.086-0.429-0.194-0.918-0.327c-0.658-0.179-1.115-0.334-1.369-0.465s-0.447-0.312-0.579-0.542
			c-0.131-0.231-0.197-0.486-0.197-0.766c0-0.254,0.054-0.489,0.162-0.706s0.255-0.396,0.441-0.54
			c0.14-0.111,0.33-0.205,0.571-0.282c0.241-0.077,0.5-0.115,0.776-0.115c0.416,0,0.78,0.064,1.095,0.193
			c0.314,0.129,0.546,0.304,0.696,0.523c0.149,0.221,0.252,0.515,0.309,0.884l-0.878,0.129c-0.04-0.294-0.155-0.522-0.346-0.688
			c-0.191-0.165-0.461-0.247-0.811-0.247c-0.413,0-0.707,0.073-0.883,0.22c-0.176,0.147-0.265,0.319-0.265,0.516
			c0,0.126,0.037,0.238,0.11,0.339c0.073,0.104,0.188,0.189,0.344,0.258c0.09,0.036,0.354,0.118,0.793,0.247
			c0.635,0.183,1.078,0.332,1.329,0.448s0.448,0.286,0.591,0.508c0.143,0.222,0.214,0.498,0.214,0.827
			c0,0.322-0.087,0.626-0.262,0.91c-0.175,0.285-0.427,0.505-0.756,0.661c-0.329,0.155-0.702,0.233-1.117,0.233
			c-0.688,0-1.213-0.154-1.574-0.462S62.908,266.072,62.809,265.467z"/>
		<path d="M67.916,265.467l0.888-0.15c0.05,0.384,0.188,0.678,0.417,0.881c0.228,0.205,0.546,0.307,0.955,0.307
			c0.412,0,0.718-0.091,0.917-0.271c0.2-0.181,0.299-0.393,0.299-0.637c0-0.218-0.088-0.39-0.264-0.516
			c-0.123-0.086-0.429-0.194-0.918-0.327c-0.658-0.179-1.115-0.334-1.369-0.465s-0.447-0.312-0.579-0.542
			c-0.131-0.231-0.197-0.486-0.197-0.766c0-0.254,0.054-0.489,0.162-0.706s0.255-0.396,0.441-0.54
			c0.14-0.111,0.33-0.205,0.571-0.282c0.241-0.077,0.5-0.115,0.776-0.115c0.416,0,0.78,0.064,1.095,0.193
			c0.314,0.129,0.546,0.304,0.696,0.523c0.149,0.221,0.252,0.515,0.309,0.884l-0.878,0.129c-0.04-0.294-0.155-0.522-0.346-0.688
			c-0.191-0.165-0.461-0.247-0.811-0.247c-0.413,0-0.707,0.073-0.883,0.22c-0.176,0.147-0.265,0.319-0.265,0.516
			c0,0.126,0.037,0.238,0.11,0.339c0.073,0.104,0.188,0.189,0.344,0.258c0.09,0.036,0.354,0.118,0.793,0.247
			c0.635,0.183,1.078,0.332,1.329,0.448s0.448,0.286,0.591,0.508c0.143,0.222,0.214,0.498,0.214,0.827
			c0,0.322-0.087,0.626-0.262,0.91c-0.175,0.285-0.427,0.505-0.756,0.661c-0.329,0.155-0.702,0.233-1.117,0.233
			c-0.688,0-1.213-0.154-1.574-0.462S68.016,266.072,67.916,265.467z"/>
		<path d="M77.008,265.333l0.928,0.124c-0.146,0.583-0.417,1.036-0.813,1.358c-0.396,0.322-0.901,0.483-1.516,0.483
			c-0.775,0-1.389-0.257-1.843-0.771c-0.454-0.514-0.681-1.234-0.681-2.162c0-0.96,0.229-1.704,0.688-2.234
			c0.458-0.53,1.054-0.795,1.786-0.795c0.708,0,1.287,0.26,1.735,0.778c0.449,0.52,0.673,1.25,0.673,2.191
			c0,0.058-0.001,0.144-0.005,0.258h-3.95c0.033,0.627,0.198,1.107,0.494,1.439c0.296,0.334,0.665,0.5,1.107,0.5
			c0.329,0,0.61-0.093,0.843-0.279S76.872,265.741,77.008,265.333z M74.06,263.769h2.958c-0.04-0.479-0.153-0.839-0.339-1.079
			c-0.286-0.372-0.657-0.559-1.112-0.559c-0.412,0-0.759,0.148-1.04,0.446C74.246,262.875,74.09,263.272,74.06,263.769z"/>
		<path d="M79.063,267.17v-5.704h0.808v0.812c0.389-0.627,0.951-0.94,1.686-0.94c0.319,0,0.613,0.062,0.88,0.186
			c0.268,0.123,0.468,0.285,0.601,0.485c0.133,0.201,0.226,0.439,0.279,0.715c0.033,0.179,0.05,0.492,0.05,0.939v3.508H82.47v-3.47
			c0-0.394-0.035-0.688-0.105-0.884s-0.194-0.351-0.372-0.467s-0.387-0.175-0.626-0.175c-0.382,0-0.712,0.131-0.99,0.392
			c-0.278,0.262-0.417,0.758-0.417,1.488v3.115H79.063z"/>
		<path d="M84.579,267.642l0.873,0.14c0.037,0.29,0.138,0.501,0.305,0.634c0.223,0.179,0.527,0.269,0.913,0.269
			c0.416,0,0.736-0.09,0.962-0.269s0.379-0.43,0.459-0.752c0.046-0.197,0.068-0.61,0.065-1.24c-0.393,0.497-0.881,0.746-1.466,0.746
			c-0.729,0-1.292-0.283-1.691-0.849s-0.599-1.244-0.599-2.036c0-0.544,0.091-1.046,0.274-1.506c0.183-0.46,0.448-0.815,0.795-1.066
			c0.348-0.251,0.756-0.376,1.225-0.376c0.625,0,1.141,0.272,1.546,0.816v-0.688h0.828v4.931c0,0.888-0.084,1.518-0.252,1.888
			c-0.168,0.371-0.434,0.663-0.798,0.878s-0.812,0.322-1.344,0.322c-0.632,0-1.142-0.152-1.531-0.459
			C84.754,268.72,84.566,268.259,84.579,267.642z M85.322,264.216c0,0.748,0.138,1.294,0.414,1.638
			c0.276,0.344,0.622,0.516,1.037,0.516c0.413,0,0.758-0.171,1.038-0.513s0.419-0.878,0.419-1.608c0-0.698-0.144-1.225-0.432-1.579
			s-0.634-0.532-1.04-0.532c-0.399,0-0.738,0.175-1.018,0.524C85.462,263.01,85.322,263.528,85.322,264.216z"/>
		<path d="M94.051,265.333l0.928,0.124c-0.146,0.583-0.417,1.036-0.813,1.358c-0.396,0.322-0.901,0.483-1.516,0.483
			c-0.775,0-1.389-0.257-1.843-0.771c-0.454-0.514-0.681-1.234-0.681-2.162c0-0.96,0.229-1.704,0.688-2.234
			c0.458-0.53,1.054-0.795,1.786-0.795c0.708,0,1.287,0.26,1.735,0.778c0.449,0.52,0.673,1.25,0.673,2.191
			c0,0.058-0.001,0.144-0.005,0.258h-3.95c0.033,0.627,0.198,1.107,0.494,1.439c0.296,0.334,0.665,0.5,1.107,0.5
			c0.329,0,0.61-0.093,0.843-0.279S93.915,265.741,94.051,265.333z M91.103,263.769h2.958c-0.04-0.479-0.153-0.839-0.339-1.079
			c-0.286-0.372-0.657-0.559-1.112-0.559c-0.412,0-0.759,0.148-1.04,0.446C91.289,262.875,91.133,263.272,91.103,263.769z"/>
		<path d="M96.096,267.17v-5.704h0.808v0.864c0.206-0.404,0.396-0.671,0.571-0.8c0.174-0.129,0.367-0.193,0.576-0.193
			c0.302,0,0.61,0.104,0.922,0.312l-0.309,0.896c-0.219-0.139-0.439-0.209-0.658-0.209c-0.196,0-0.373,0.063-0.529,0.19
			s-0.268,0.304-0.334,0.529c-0.1,0.344-0.15,0.72-0.15,1.128v2.986H96.096z"/>
	</g>
	<g>
		<path d="M129.06,253.97l-1.621-5.704h0.928l0.843,3.292l0.314,1.225c0.013-0.061,0.104-0.452,0.274-1.176l0.843-3.341h0.923
			l0.793,3.309l0.264,1.091l0.304-1.102l0.908-3.298h0.873l-1.656,5.704h-0.933l-0.843-3.416l-0.204-0.973l-1.073,4.389H129.06z"/>
		<path d="M138.916,253.266c-0.333,0.304-0.653,0.519-0.96,0.645c-0.308,0.125-0.637,0.188-0.99,0.188
			c-0.582,0-1.029-0.153-1.342-0.459c-0.312-0.307-0.469-0.697-0.469-1.174c0-0.279,0.059-0.534,0.177-0.766
			c0.118-0.23,0.273-0.416,0.464-0.556c0.191-0.14,0.407-0.245,0.646-0.317c0.176-0.05,0.442-0.098,0.798-0.145
			c0.725-0.093,1.258-0.204,1.601-0.333c0.003-0.133,0.005-0.217,0.005-0.253c0-0.394-0.085-0.671-0.254-0.832
			c-0.229-0.219-0.57-0.328-1.022-0.328c-0.422,0-0.734,0.08-0.935,0.239c-0.202,0.159-0.35,0.441-0.447,0.847l-0.877-0.129
			c0.08-0.405,0.211-0.731,0.394-0.98c0.183-0.249,0.447-0.44,0.793-0.575c0.346-0.134,0.746-0.201,1.202-0.201
			c0.452,0,0.82,0.058,1.103,0.172c0.282,0.114,0.49,0.259,0.624,0.433c0.133,0.174,0.226,0.393,0.279,0.658
			c0.03,0.164,0.045,0.461,0.045,0.891v1.289c0,0.899,0.019,1.468,0.057,1.706s0.114,0.466,0.227,0.685h-0.938
			C139.002,253.769,138.942,253.534,138.916,253.266z M138.841,251.106c-0.326,0.144-0.814,0.266-1.466,0.365
			c-0.369,0.058-0.63,0.122-0.783,0.193c-0.153,0.072-0.271,0.177-0.354,0.314c-0.083,0.138-0.125,0.291-0.125,0.459
			c0,0.258,0.091,0.473,0.272,0.645s0.446,0.258,0.795,0.258c0.346,0,0.653-0.081,0.923-0.244c0.269-0.163,0.467-0.386,0.593-0.668
			c0.097-0.219,0.145-0.541,0.145-0.967V251.106z"/>
		<path d="M141.12,253.97v-7.874h0.898v7.874H141.12z"/>
		<path d="M143.414,253.97v-7.874h0.898v4.49l2.125-2.32h1.162l-2.025,2.116l2.229,3.588h-1.107l-1.75-2.916l-0.633,0.654v2.262
			H143.414z"/>
		<path d="M148.522,247.208v-1.112h0.898v1.112H148.522z M148.522,253.97v-5.704h0.898v5.704H148.522z"/>
		<path d="M150.786,253.97v-5.704h0.808v0.812c0.389-0.627,0.951-0.94,1.686-0.94c0.319,0,0.613,0.062,0.88,0.186
			c0.268,0.123,0.468,0.285,0.601,0.485c0.133,0.201,0.226,0.439,0.279,0.715c0.033,0.179,0.05,0.492,0.05,0.939v3.508h-0.897v-3.47
			c0-0.394-0.035-0.688-0.105-0.884s-0.194-0.351-0.372-0.467s-0.387-0.175-0.626-0.175c-0.382,0-0.712,0.131-0.99,0.392
			c-0.278,0.262-0.417,0.758-0.417,1.488v3.115H150.786z"/>
		<path d="M156.302,254.442l0.873,0.14c0.037,0.29,0.138,0.501,0.305,0.634c0.223,0.179,0.527,0.269,0.913,0.269
			c0.416,0,0.736-0.09,0.962-0.269s0.379-0.43,0.459-0.752c0.046-0.197,0.068-0.61,0.065-1.24c-0.393,0.497-0.881,0.746-1.466,0.746
			c-0.729,0-1.292-0.283-1.691-0.849s-0.599-1.244-0.599-2.036c0-0.544,0.091-1.046,0.274-1.506c0.183-0.46,0.448-0.815,0.795-1.066
			c0.348-0.251,0.756-0.376,1.225-0.376c0.625,0,1.141,0.272,1.546,0.816v-0.688h0.828v4.931c0,0.888-0.084,1.518-0.252,1.888
			c-0.168,0.371-0.434,0.663-0.798,0.878s-0.812,0.322-1.344,0.322c-0.632,0-1.142-0.152-1.531-0.459
			C156.477,255.519,156.289,255.058,156.302,254.442z M157.046,251.015c0,0.748,0.138,1.294,0.414,1.638
			c0.276,0.344,0.622,0.516,1.037,0.516c0.413,0,0.758-0.171,1.038-0.513s0.419-0.878,0.419-1.608c0-0.698-0.144-1.225-0.432-1.579
			s-0.634-0.532-1.04-0.532c-0.399,0-0.738,0.175-1.018,0.524C157.185,249.809,157.046,250.328,157.046,251.015z"/>
	</g>
	<g>
		<path d="M314.734,253.166h-0.897v-7.874h0.967v2.81c0.408-0.513,0.929-0.769,1.563-0.769c0.351,0,0.683,0.071,0.996,0.212
			c0.313,0.142,0.571,0.341,0.773,0.597s0.36,0.564,0.475,0.927c0.115,0.361,0.172,0.748,0.172,1.16
			c0,0.978-0.241,1.732-0.725,2.267c-0.483,0.533-1.063,0.8-1.74,0.8c-0.673,0-1.201-0.281-1.584-0.843V253.166z M314.722,250.271
			c0,0.684,0.094,1.178,0.279,1.482c0.305,0.497,0.717,0.746,1.236,0.746c0.422,0,0.787-0.184,1.096-0.551
			c0.308-0.366,0.461-0.913,0.461-1.641c0-0.744-0.147-1.294-0.442-1.648c-0.296-0.354-0.653-0.532-1.071-0.532
			c-0.423,0-0.788,0.184-1.096,0.551C314.876,249.046,314.722,249.576,314.722,250.271z"/>
		<path d="M323.697,253.166v-0.838c-0.443,0.645-1.047,0.967-1.81,0.967c-0.337,0-0.65-0.064-0.942-0.193s-0.509-0.291-0.65-0.486
			c-0.142-0.194-0.24-0.434-0.298-0.717c-0.039-0.189-0.06-0.49-0.06-0.902v-3.534h0.967v3.164c0,0.505,0.021,0.845,0.06,1.021
			c0.061,0.254,0.189,0.453,0.387,0.599c0.197,0.145,0.44,0.218,0.73,0.218s0.562-0.074,0.816-0.224
			c0.254-0.148,0.435-0.351,0.54-0.606s0.158-0.628,0.158-1.114v-3.057h0.967v5.704H323.697z"/>
		<path d="M325.69,251.464l0.957-0.15c0.053,0.383,0.203,0.677,0.448,0.881s0.588,0.306,1.028,0.306c0.444,0,0.773-0.09,0.988-0.271
			c0.215-0.181,0.322-0.393,0.322-0.636c0-0.219-0.095-0.391-0.285-0.516c-0.132-0.086-0.461-0.195-0.988-0.328
			c-0.709-0.179-1.2-0.334-1.474-0.465c-0.274-0.13-0.481-0.312-0.623-0.542c-0.142-0.231-0.212-0.486-0.212-0.766
			c0-0.254,0.058-0.489,0.174-0.706s0.275-0.396,0.476-0.54c0.15-0.11,0.355-0.205,0.615-0.282c0.26-0.076,0.538-0.115,0.835-0.115
			c0.447,0,0.841,0.064,1.179,0.193c0.339,0.129,0.589,0.304,0.749,0.523c0.162,0.221,0.272,0.516,0.334,0.884l-0.945,0.129
			c-0.043-0.293-0.168-0.522-0.374-0.688c-0.206-0.164-0.497-0.247-0.872-0.247c-0.444,0-0.762,0.073-0.951,0.221
			c-0.189,0.146-0.285,0.318-0.285,0.516c0,0.125,0.04,0.238,0.119,0.338c0.078,0.104,0.202,0.19,0.37,0.258
			c0.097,0.036,0.382,0.118,0.854,0.247c0.684,0.183,1.16,0.332,1.431,0.448c0.271,0.117,0.482,0.286,0.637,0.508
			c0.154,0.223,0.231,0.498,0.231,0.827c0,0.322-0.095,0.626-0.282,0.91c-0.188,0.285-0.46,0.505-0.813,0.661
			c-0.355,0.155-0.756,0.233-1.203,0.233c-0.742,0-1.307-0.153-1.695-0.462C326.045,252.525,325.797,252.068,325.69,251.464z"/>
	</g>
	<g>
		<path d="M194.065,251.88l0.883,0.124c-0.097,0.655-0.344,1.168-0.741,1.539c-0.397,0.37-0.885,0.556-1.464,0.556
			c-0.725,0-1.308-0.255-1.748-0.766c-0.44-0.51-0.66-1.241-0.66-2.193c0-0.616,0.095-1.155,0.284-1.617s0.478-0.809,0.865-1.039
			c0.387-0.231,0.809-0.347,1.265-0.347c0.575,0,1.045,0.156,1.411,0.47c0.365,0.313,0.6,0.759,0.703,1.335l-0.873,0.146
			c-0.083-0.384-0.23-0.672-0.441-0.865s-0.466-0.29-0.766-0.29c-0.452,0-0.819,0.175-1.102,0.523
			c-0.283,0.35-0.425,0.901-0.425,1.657c0,0.767,0.137,1.323,0.409,1.67c0.272,0.348,0.629,0.521,1.067,0.521
			c0.353,0,0.646-0.116,0.883-0.35C193.852,252.721,194.001,252.364,194.065,251.88z"/>
		<path d="M195.676,256.167l-0.101-0.908c0.196,0.058,0.368,0.086,0.515,0.086c0.199,0,0.358-0.036,0.479-0.107
			c0.119-0.071,0.218-0.172,0.294-0.301c0.057-0.097,0.148-0.337,0.274-0.72c0.017-0.054,0.043-0.133,0.08-0.236l-2.01-5.715h0.967
			l1.103,3.304c0.143,0.418,0.271,0.859,0.384,1.32c0.104-0.443,0.227-0.877,0.369-1.299l1.133-3.325h0.897l-2.015,5.801
			c-0.217,0.627-0.385,1.058-0.504,1.294c-0.16,0.319-0.343,0.553-0.549,0.701s-0.452,0.223-0.738,0.223
			C196.081,256.284,195.888,256.245,195.676,256.167z"/>
		<path d="M204.279,251.88l0.883,0.124c-0.097,0.655-0.344,1.168-0.741,1.539c-0.397,0.37-0.885,0.556-1.464,0.556
			c-0.725,0-1.308-0.255-1.748-0.766c-0.44-0.51-0.66-1.241-0.66-2.193c0-0.616,0.095-1.155,0.284-1.617s0.478-0.809,0.865-1.039
			c0.387-0.231,0.809-0.347,1.265-0.347c0.575,0,1.045,0.156,1.411,0.47c0.365,0.313,0.6,0.759,0.703,1.335l-0.873,0.146
			c-0.083-0.384-0.23-0.672-0.441-0.865s-0.466-0.29-0.766-0.29c-0.452,0-0.819,0.175-1.102,0.523
			c-0.283,0.35-0.425,0.901-0.425,1.657c0,0.767,0.137,1.323,0.409,1.67c0.272,0.348,0.629,0.521,1.067,0.521
			c0.353,0,0.646-0.116,0.883-0.35C204.067,252.721,204.216,252.364,204.279,251.88z"/>
		<path d="M205.91,253.97v-7.874h0.897v7.874H205.91z"/>
		<path d="M208.204,247.208v-1.112h0.897v1.112H208.204z M208.204,253.97v-5.704h0.897v5.704H208.204z"/>
		<path d="M210.468,253.97v-5.704h0.809v0.812c0.389-0.627,0.951-0.94,1.686-0.94c0.319,0,0.612,0.062,0.881,0.186
			c0.268,0.123,0.468,0.285,0.601,0.485c0.133,0.201,0.227,0.439,0.279,0.715c0.033,0.179,0.05,0.492,0.05,0.939v3.508h-0.897v-3.47
			c0-0.394-0.035-0.688-0.104-0.884c-0.07-0.195-0.194-0.351-0.372-0.467s-0.387-0.175-0.626-0.175c-0.383,0-0.712,0.131-0.99,0.392
			c-0.277,0.262-0.416,0.758-0.416,1.488v3.115H210.468z"/>
		<path d="M215.985,254.442l0.873,0.14c0.036,0.29,0.138,0.501,0.304,0.634c0.223,0.179,0.527,0.269,0.913,0.269
			c0.415,0,0.736-0.09,0.963-0.269c0.226-0.179,0.379-0.43,0.458-0.752c0.047-0.197,0.068-0.61,0.065-1.24
			c-0.393,0.497-0.881,0.746-1.467,0.746c-0.728,0-1.291-0.283-1.69-0.849s-0.599-1.244-0.599-2.036
			c0-0.544,0.092-1.046,0.274-1.506s0.448-0.815,0.796-1.066c0.347-0.251,0.755-0.376,1.224-0.376c0.626,0,1.141,0.272,1.547,0.816
			v-0.688h0.828v4.931c0,0.888-0.085,1.518-0.252,1.888c-0.168,0.371-0.435,0.663-0.799,0.878c-0.363,0.215-0.812,0.322-1.344,0.322
			c-0.632,0-1.143-0.152-1.531-0.459C216.159,255.519,215.971,255.058,215.985,254.442z M216.728,251.015
			c0,0.748,0.138,1.294,0.414,1.638c0.275,0.344,0.621,0.516,1.037,0.516c0.412,0,0.758-0.171,1.037-0.513s0.419-0.878,0.419-1.608
			c0-0.698-0.144-1.225-0.431-1.579c-0.288-0.354-0.635-0.532-1.04-0.532c-0.399,0-0.738,0.175-1.018,0.524
			C216.867,249.809,216.728,250.328,216.728,251.015z"/>
	</g>
	<g>
		<path d="M252.507,253.97l-1.621-5.704h0.928l0.842,3.292l0.314,1.225c0.014-0.061,0.105-0.452,0.273-1.176l0.844-3.341h0.922
			l0.793,3.309l0.266,1.091l0.305-1.102l0.906-3.298h0.873l-1.656,5.704h-0.932l-0.844-3.416l-0.203-0.973l-1.072,4.389H252.507z"/>
		<path d="M262.363,253.266c-0.334,0.304-0.652,0.519-0.961,0.645c-0.307,0.125-0.637,0.188-0.99,0.188
			c-0.582,0-1.029-0.153-1.342-0.459c-0.312-0.307-0.469-0.697-0.469-1.174c0-0.279,0.059-0.534,0.178-0.766
			c0.117-0.23,0.271-0.416,0.463-0.556s0.406-0.245,0.646-0.317c0.176-0.05,0.441-0.098,0.799-0.145
			c0.725-0.093,1.258-0.204,1.6-0.333c0.004-0.133,0.006-0.217,0.006-0.253c0-0.394-0.084-0.671-0.254-0.832
			c-0.23-0.219-0.57-0.328-1.023-0.328c-0.422,0-0.734,0.08-0.936,0.239s-0.35,0.441-0.445,0.847l-0.879-0.129
			c0.08-0.405,0.211-0.731,0.395-0.98s0.447-0.44,0.793-0.575c0.346-0.134,0.746-0.201,1.203-0.201c0.451,0,0.818,0.058,1.102,0.172
			s0.49,0.259,0.623,0.433s0.227,0.393,0.279,0.658c0.029,0.164,0.045,0.461,0.045,0.891v1.289c0,0.899,0.02,1.468,0.057,1.706
			c0.039,0.238,0.115,0.466,0.229,0.685h-0.938C262.448,253.769,262.388,253.534,262.363,253.266z M262.286,251.106
			c-0.324,0.144-0.814,0.266-1.465,0.365c-0.369,0.058-0.631,0.122-0.783,0.193c-0.154,0.072-0.271,0.177-0.355,0.314
			c-0.082,0.138-0.123,0.291-0.123,0.459c0,0.258,0.09,0.473,0.271,0.645c0.18,0.172,0.445,0.258,0.795,0.258
			c0.346,0,0.654-0.081,0.922-0.244c0.27-0.163,0.469-0.386,0.594-0.668c0.098-0.219,0.145-0.541,0.145-0.967V251.106z"/>
		<path d="M264.566,253.97v-7.874h0.898v7.874H264.566z"/>
		<path d="M266.861,253.97v-7.874h0.898v4.49l2.125-2.32h1.162l-2.025,2.116l2.229,3.588h-1.107l-1.75-2.916l-0.633,0.654v2.262
			H266.861z"/>
		<path d="M271.968,247.208v-1.112h0.898v1.112H271.968z M271.968,253.97v-5.704h0.898v5.704H271.968z"/>
		<path d="M274.232,253.97v-5.704h0.809v0.812c0.389-0.627,0.951-0.94,1.686-0.94c0.318,0,0.611,0.062,0.881,0.186
			c0.268,0.123,0.467,0.285,0.6,0.485c0.133,0.201,0.227,0.439,0.279,0.715c0.033,0.179,0.051,0.492,0.051,0.939v3.508h-0.898v-3.47
			c0-0.394-0.035-0.688-0.104-0.884c-0.07-0.195-0.195-0.351-0.373-0.467s-0.387-0.175-0.625-0.175c-0.383,0-0.713,0.131-0.99,0.392
			c-0.277,0.262-0.416,0.758-0.416,1.488v3.115H274.232z"/>
		<path d="M279.749,254.442l0.873,0.14c0.035,0.29,0.137,0.501,0.303,0.634c0.223,0.179,0.527,0.269,0.914,0.269
			c0.414,0,0.736-0.09,0.963-0.269c0.225-0.179,0.379-0.43,0.457-0.752c0.047-0.197,0.068-0.61,0.066-1.24
			c-0.393,0.497-0.881,0.746-1.467,0.746c-0.729,0-1.291-0.283-1.691-0.849c-0.398-0.565-0.598-1.244-0.598-2.036
			c0-0.544,0.092-1.046,0.273-1.506c0.184-0.46,0.449-0.815,0.797-1.066c0.346-0.251,0.754-0.376,1.223-0.376
			c0.627,0,1.141,0.272,1.547,0.816v-0.688h0.828v4.931c0,0.888-0.084,1.518-0.252,1.888c-0.168,0.371-0.434,0.663-0.799,0.878
			c-0.363,0.215-0.811,0.322-1.344,0.322c-0.631,0-1.143-0.152-1.531-0.459C279.923,255.519,279.736,255.058,279.749,254.442z
			 M280.491,251.015c0,0.748,0.139,1.294,0.414,1.638s0.621,0.516,1.037,0.516c0.412,0,0.758-0.171,1.037-0.513
			s0.42-0.878,0.42-1.608c0-0.698-0.145-1.225-0.432-1.579s-0.635-0.532-1.039-0.532c-0.4,0-0.738,0.175-1.018,0.524
			C280.632,249.809,280.491,250.328,280.491,251.015z"/>
		<path d="M253.843,266.467c-0.334,0.304-0.652,0.519-0.961,0.645c-0.307,0.125-0.637,0.188-0.99,0.188
			c-0.582,0-1.029-0.153-1.342-0.459c-0.312-0.307-0.469-0.697-0.469-1.174c0-0.279,0.059-0.534,0.178-0.766
			c0.117-0.23,0.271-0.416,0.463-0.556s0.406-0.245,0.646-0.317c0.176-0.05,0.441-0.098,0.799-0.145
			c0.725-0.093,1.258-0.204,1.6-0.333c0.004-0.133,0.006-0.217,0.006-0.253c0-0.394-0.084-0.671-0.254-0.832
			c-0.23-0.219-0.57-0.328-1.023-0.328c-0.422,0-0.734,0.08-0.936,0.239s-0.35,0.441-0.445,0.847l-0.879-0.129
			c0.08-0.405,0.211-0.731,0.395-0.98s0.447-0.44,0.793-0.575c0.346-0.134,0.746-0.201,1.203-0.201c0.451,0,0.818,0.058,1.102,0.172
			s0.49,0.259,0.623,0.433s0.227,0.393,0.279,0.658c0.029,0.164,0.045,0.461,0.045,0.891v1.289c0,0.899,0.02,1.468,0.057,1.706
			c0.039,0.238,0.115,0.466,0.229,0.685h-0.938C253.929,266.97,253.868,266.734,253.843,266.467z M253.767,264.306
			c-0.324,0.144-0.814,0.266-1.465,0.365c-0.369,0.058-0.631,0.122-0.783,0.193c-0.154,0.072-0.271,0.177-0.355,0.314
			c-0.082,0.138-0.123,0.291-0.123,0.459c0,0.258,0.09,0.473,0.271,0.645c0.18,0.172,0.445,0.258,0.795,0.258
			c0.346,0,0.654-0.081,0.922-0.244c0.27-0.163,0.469-0.386,0.594-0.668c0.098-0.219,0.145-0.541,0.145-0.967V264.306z"/>
		<path d="M256.066,267.17v-5.704h0.809v0.812c0.389-0.627,0.951-0.94,1.686-0.94c0.32,0,0.613,0.062,0.881,0.186
			c0.268,0.123,0.469,0.285,0.602,0.485c0.133,0.201,0.227,0.439,0.279,0.715c0.033,0.179,0.049,0.492,0.049,0.939v3.508h-0.896
			v-3.47c0-0.394-0.035-0.688-0.105-0.884s-0.193-0.351-0.371-0.467s-0.387-0.175-0.627-0.175c-0.383,0-0.711,0.131-0.99,0.392
			c-0.277,0.262-0.416,0.758-0.416,1.488v3.115H256.066z"/>
		<path d="M265.183,267.17v-0.72c-0.336,0.565-0.828,0.849-1.48,0.849c-0.422,0-0.811-0.125-1.164-0.376
			c-0.355-0.251-0.629-0.601-0.824-1.05c-0.193-0.449-0.291-0.966-0.291-1.55c0-0.569,0.088-1.086,0.264-1.55
			c0.178-0.464,0.441-0.818,0.793-1.066c0.354-0.246,0.748-0.37,1.184-0.37c0.318,0,0.604,0.072,0.852,0.218
			c0.25,0.145,0.453,0.334,0.609,0.566v-2.825h0.893v7.874H265.183z M262.345,264.323c0,0.73,0.145,1.276,0.43,1.638
			c0.285,0.362,0.623,0.543,1.012,0.543c0.393,0,0.727-0.173,1-0.519c0.275-0.346,0.412-0.872,0.412-1.581
			c0-0.781-0.139-1.354-0.418-1.719s-0.625-0.549-1.033-0.549c-0.398,0-0.732,0.176-1,0.527
			C262.48,263.014,262.345,263.567,262.345,264.323z"/>
		<path d="M271.095,267.17h-0.834v-7.874h0.898v2.81c0.379-0.513,0.863-0.769,1.451-0.769c0.326,0,0.635,0.07,0.926,0.212
			s0.529,0.341,0.719,0.597c0.188,0.256,0.334,0.564,0.441,0.927c0.105,0.361,0.158,0.748,0.158,1.16
			c0,0.977-0.225,1.732-0.672,2.266c-0.449,0.534-0.988,0.801-1.617,0.801c-0.625,0-1.115-0.281-1.471-0.844V267.17z
			 M271.085,264.275c0,0.684,0.086,1.178,0.26,1.482c0.281,0.497,0.664,0.746,1.146,0.746c0.393,0,0.73-0.184,1.018-0.551
			c0.285-0.367,0.428-0.914,0.428-1.641c0-0.745-0.137-1.295-0.41-1.648c-0.275-0.355-0.605-0.532-0.996-0.532
			c-0.393,0-0.73,0.184-1.018,0.551C271.228,263.05,271.085,263.58,271.085,264.275z"/>
		<path d="M279.419,267.17v-0.838c-0.412,0.645-0.973,0.967-1.682,0.967c-0.312,0-0.604-0.064-0.875-0.193s-0.473-0.291-0.604-0.486
			s-0.223-0.434-0.277-0.717c-0.035-0.189-0.055-0.49-0.055-0.902v-3.534h0.898v3.163c0,0.506,0.018,0.846,0.055,1.021
			c0.057,0.254,0.176,0.453,0.359,0.599c0.182,0.145,0.408,0.218,0.678,0.218s0.521-0.075,0.758-0.224s0.404-0.351,0.502-0.606
			s0.146-0.628,0.146-1.115v-3.056h0.898v5.704H279.419z"/>
		<path d="M281.269,265.467l0.889-0.15c0.049,0.384,0.188,0.678,0.416,0.881c0.227,0.205,0.547,0.307,0.955,0.307
			c0.412,0,0.719-0.091,0.918-0.271s0.299-0.393,0.299-0.637c0-0.218-0.088-0.39-0.264-0.516c-0.123-0.086-0.43-0.194-0.918-0.327
			c-0.658-0.179-1.115-0.334-1.369-0.465s-0.447-0.312-0.578-0.542c-0.133-0.231-0.197-0.486-0.197-0.766
			c0-0.254,0.053-0.489,0.162-0.706c0.107-0.217,0.254-0.396,0.441-0.54c0.139-0.111,0.33-0.205,0.57-0.282
			c0.242-0.077,0.5-0.115,0.775-0.115c0.416,0,0.781,0.064,1.096,0.193s0.545,0.304,0.695,0.523c0.15,0.221,0.252,0.515,0.309,0.884
			l-0.877,0.129c-0.041-0.294-0.156-0.522-0.348-0.688s-0.461-0.247-0.811-0.247c-0.412,0-0.705,0.073-0.883,0.22
			c-0.176,0.147-0.264,0.319-0.264,0.516c0,0.126,0.037,0.238,0.109,0.339c0.074,0.104,0.188,0.189,0.344,0.258
			c0.09,0.036,0.355,0.118,0.793,0.247c0.637,0.183,1.078,0.332,1.33,0.448s0.447,0.286,0.592,0.508
			c0.143,0.222,0.213,0.498,0.213,0.827c0,0.322-0.086,0.626-0.262,0.91c-0.174,0.285-0.426,0.505-0.754,0.661
			c-0.33,0.155-0.703,0.233-1.119,0.233c-0.688,0-1.211-0.154-1.572-0.462S281.368,266.072,281.269,265.467z"/>
	</g>
	<g>
		<path d="M72.288,23.333v-7.137h-2.549v-1.453h6.826v1.453h-2.543v7.137H72.288z"/>
		<path d="M78.587,23.333H76.94v-6.223h1.529v0.885c0.262-0.418,0.497-0.693,0.706-0.826s0.446-0.199,0.712-0.199
			c0.375,0,0.736,0.104,1.084,0.311l-0.51,1.436c-0.277-0.18-0.535-0.27-0.773-0.27c-0.23,0-0.426,0.063-0.586,0.19
			s-0.286,0.356-0.378,0.688s-0.138,1.027-0.138,2.086V23.333z"/>
		<path d="M82.911,19.009l-1.494-0.27c0.168-0.602,0.457-1.047,0.867-1.336s1.02-0.434,1.828-0.434c0.734,0,1.281,0.087,1.641,0.261
			s0.612,0.395,0.759,0.662s0.22,0.759,0.22,1.474l-0.018,1.922c0,0.547,0.026,0.95,0.079,1.21s0.151,0.538,0.296,0.835H85.46
			c-0.043-0.109-0.096-0.271-0.158-0.486c-0.027-0.098-0.047-0.162-0.059-0.193c-0.281,0.273-0.582,0.479-0.902,0.615
			s-0.662,0.205-1.025,0.205c-0.641,0-1.146-0.174-1.515-0.521s-0.554-0.787-0.554-1.318c0-0.352,0.084-0.665,0.252-0.94
			s0.403-0.486,0.706-0.633s0.739-0.274,1.31-0.384c0.77-0.145,1.303-0.279,1.6-0.404v-0.164c0-0.316-0.078-0.542-0.234-0.677
			s-0.451-0.202-0.885-0.202c-0.293,0-0.521,0.058-0.686,0.173S83.012,18.72,82.911,19.009z M85.114,20.345
			c-0.211,0.07-0.545,0.154-1.002,0.252s-0.756,0.193-0.896,0.287c-0.215,0.152-0.322,0.346-0.322,0.58
			c0,0.23,0.086,0.43,0.258,0.598s0.391,0.252,0.656,0.252c0.297,0,0.58-0.098,0.85-0.293c0.199-0.148,0.33-0.33,0.393-0.545
			c0.043-0.141,0.064-0.408,0.064-0.803V20.345z"/>
		<path d="M90.065,23.333l-2.508-6.223h1.729l1.172,3.176l0.34,1.061c0.09-0.27,0.146-0.447,0.17-0.533
			c0.055-0.176,0.113-0.352,0.176-0.527l1.184-3.176h1.693l-2.473,6.223H90.065z"/>
		<path d="M98.632,21.353l1.641,0.275c-0.211,0.602-0.544,1.06-0.999,1.374s-1.024,0.472-1.708,0.472
			c-1.082,0-1.883-0.354-2.402-1.061c-0.41-0.566-0.615-1.281-0.615-2.145c0-1.031,0.27-1.839,0.809-2.423s1.221-0.876,2.045-0.876
			c0.926,0,1.656,0.306,2.191,0.917s0.791,1.548,0.768,2.81h-4.125c0.012,0.488,0.145,0.868,0.398,1.14s0.57,0.407,0.949,0.407
			c0.258,0,0.475-0.07,0.65-0.211S98.542,21.665,98.632,21.353z M98.725,19.689c-0.012-0.477-0.135-0.839-0.369-1.087
			s-0.52-0.372-0.855-0.372c-0.359,0-0.656,0.131-0.891,0.393s-0.35,0.617-0.346,1.066H98.725z"/>
		<path d="M101.702,23.333v-8.59h1.646v8.59H101.702z"/>
		<path d="M111.223,17.111v1.312h-1.125v2.508c0,0.508,0.011,0.804,0.032,0.888s0.07,0.153,0.146,0.208s0.169,0.082,0.278,0.082
			c0.152,0,0.373-0.053,0.662-0.158l0.141,1.277c-0.383,0.164-0.816,0.246-1.301,0.246c-0.297,0-0.564-0.05-0.803-0.149
			s-0.413-0.229-0.524-0.387s-0.188-0.372-0.231-0.642c-0.035-0.191-0.053-0.578-0.053-1.16v-2.713h-0.756v-1.312h0.756v-1.236
			l1.652-0.961v2.197H111.223z"/>
		<path d="M111.985,20.134c0-0.547,0.135-1.076,0.404-1.588s0.651-0.902,1.146-1.172s1.046-0.404,1.655-0.404
			c0.941,0,1.713,0.306,2.314,0.917s0.902,1.384,0.902,2.317c0,0.941-0.304,1.722-0.911,2.341s-1.372,0.929-2.294,0.929
			c-0.57,0-1.114-0.129-1.632-0.387s-0.911-0.636-1.181-1.134S111.985,20.849,111.985,20.134z M113.673,20.222
			c0,0.617,0.146,1.09,0.439,1.418s0.654,0.492,1.084,0.492s0.79-0.164,1.081-0.492s0.437-0.805,0.437-1.43
			c0-0.609-0.146-1.078-0.437-1.406s-0.651-0.492-1.081-0.492s-0.791,0.164-1.084,0.492S113.673,19.605,113.673,20.222z"/>
		<path d="M124.26,19.009l-1.494-0.27c0.168-0.602,0.457-1.047,0.867-1.336s1.02-0.434,1.828-0.434c0.734,0,1.281,0.087,1.641,0.261
			s0.612,0.395,0.759,0.662s0.22,0.759,0.22,1.474l-0.018,1.922c0,0.547,0.026,0.95,0.079,1.21s0.151,0.538,0.296,0.835h-1.629
			c-0.043-0.109-0.096-0.271-0.158-0.486c-0.027-0.098-0.047-0.162-0.059-0.193c-0.281,0.273-0.582,0.479-0.902,0.615
			s-0.662,0.205-1.025,0.205c-0.641,0-1.146-0.174-1.515-0.521s-0.554-0.787-0.554-1.318c0-0.352,0.084-0.665,0.252-0.94
			s0.403-0.486,0.706-0.633s0.739-0.274,1.31-0.384c0.77-0.145,1.303-0.279,1.6-0.404v-0.164c0-0.316-0.078-0.542-0.234-0.677
			s-0.451-0.202-0.885-0.202c-0.293,0-0.521,0.058-0.686,0.173S124.362,18.72,124.26,19.009z M126.464,20.345
			c-0.211,0.07-0.545,0.154-1.002,0.252s-0.756,0.193-0.896,0.287c-0.215,0.152-0.322,0.346-0.322,0.58
			c0,0.23,0.086,0.43,0.258,0.598s0.391,0.252,0.656,0.252c0.297,0,0.58-0.098,0.85-0.293c0.199-0.148,0.33-0.33,0.393-0.545
			c0.043-0.141,0.064-0.408,0.064-0.803V20.345z"/>
		<path d="M135.364,23.333h-1.646v-3.176c0-0.672-0.035-1.106-0.105-1.304s-0.185-0.351-0.343-0.46s-0.349-0.164-0.571-0.164
			c-0.285,0-0.541,0.078-0.768,0.234s-0.382,0.363-0.466,0.621s-0.126,0.734-0.126,1.43v2.818h-1.646v-6.223h1.529v0.914
			c0.543-0.703,1.227-1.055,2.051-1.055c0.363,0,0.695,0.065,0.996,0.196s0.528,0.298,0.683,0.501s0.262,0.434,0.322,0.691
			s0.091,0.627,0.091,1.107V23.333z"/>
		<path d="M142.741,23.333h-1.529v-0.914c-0.254,0.355-0.554,0.62-0.899,0.794s-0.694,0.261-1.046,0.261
			c-0.715,0-1.327-0.288-1.837-0.864s-0.765-1.38-0.765-2.411c0-1.055,0.248-1.856,0.744-2.405s1.123-0.823,1.881-0.823
			c0.695,0,1.297,0.289,1.805,0.867v-3.094h1.646V23.333z M138.346,20.087c0,0.664,0.092,1.145,0.275,1.441
			c0.266,0.43,0.637,0.645,1.113,0.645c0.379,0,0.701-0.161,0.967-0.483s0.398-0.804,0.398-1.444c0-0.715-0.129-1.229-0.387-1.544
			s-0.588-0.472-0.99-0.472c-0.391,0-0.718,0.155-0.981,0.466S138.346,19.47,138.346,20.087z"/>
		<path d="M146.977,17.111h0.914v-0.469c0-0.523,0.056-0.914,0.167-1.172s0.316-0.468,0.615-0.63s0.677-0.243,1.134-0.243
			c0.469,0,0.928,0.07,1.377,0.211l-0.223,1.148c-0.262-0.062-0.514-0.094-0.756-0.094c-0.238,0-0.409,0.056-0.513,0.167
			s-0.155,0.325-0.155,0.642v0.439h1.23v1.295h-1.23v4.928h-1.646v-4.928h-0.914V17.111z"/>
		<path d="M153.27,23.333h-1.646v-6.223h1.529v0.885c0.262-0.418,0.497-0.693,0.706-0.826s0.446-0.199,0.712-0.199
			c0.375,0,0.736,0.104,1.084,0.311l-0.51,1.436c-0.277-0.18-0.535-0.27-0.773-0.27c-0.23,0-0.426,0.063-0.586,0.19
			s-0.286,0.356-0.378,0.688s-0.138,1.027-0.138,2.086V23.333z"/>
		<path d="M155.983,20.134c0-0.547,0.135-1.076,0.404-1.588s0.651-0.902,1.146-1.172s1.046-0.404,1.655-0.404
			c0.941,0,1.713,0.306,2.314,0.917s0.902,1.384,0.902,2.317c0,0.941-0.304,1.722-0.911,2.341s-1.372,0.929-2.294,0.929
			c-0.57,0-1.114-0.129-1.632-0.387s-0.911-0.636-1.181-1.134S155.983,20.849,155.983,20.134z M157.671,20.222
			c0,0.617,0.146,1.09,0.439,1.418s0.654,0.492,1.084,0.492s0.79-0.164,1.081-0.492s0.437-0.805,0.437-1.43
			c0-0.609-0.146-1.078-0.437-1.406s-0.651-0.492-1.081-0.492s-0.791,0.164-1.084,0.492S157.671,19.605,157.671,20.222z"/>
		<path d="M163.571,17.111h1.518v0.85c0.543-0.66,1.189-0.99,1.939-0.99c0.398,0,0.744,0.082,1.037,0.246s0.533,0.412,0.721,0.744
			c0.273-0.332,0.568-0.58,0.885-0.744s0.654-0.246,1.014-0.246c0.457,0,0.844,0.093,1.16,0.278s0.553,0.458,0.709,0.817
			c0.113,0.266,0.17,0.695,0.17,1.289v3.979h-1.646v-3.557c0-0.617-0.057-1.016-0.17-1.195c-0.152-0.234-0.387-0.352-0.703-0.352
			c-0.23,0-0.447,0.07-0.65,0.211s-0.35,0.347-0.439,0.618s-0.135,0.7-0.135,1.286v2.988h-1.646v-3.41
			c0-0.605-0.029-0.996-0.088-1.172s-0.149-0.307-0.272-0.393s-0.29-0.129-0.501-0.129c-0.254,0-0.482,0.068-0.686,0.205
			s-0.349,0.334-0.437,0.592s-0.132,0.686-0.132,1.283v3.023h-1.646V17.111z"/>
		<path d="M177.118,21.558l1.652-0.252c0.07,0.32,0.213,0.563,0.428,0.729s0.516,0.249,0.902,0.249c0.426,0,0.746-0.078,0.961-0.234
			c0.145-0.109,0.217-0.256,0.217-0.439c0-0.125-0.039-0.229-0.117-0.311c-0.082-0.078-0.266-0.15-0.551-0.217
			c-1.328-0.293-2.17-0.561-2.525-0.803c-0.492-0.336-0.738-0.803-0.738-1.4c0-0.539,0.213-0.992,0.639-1.359
			s1.086-0.551,1.98-0.551c0.852,0,1.484,0.139,1.898,0.416s0.699,0.688,0.855,1.23l-1.553,0.287
			c-0.066-0.242-0.192-0.428-0.378-0.557s-0.45-0.193-0.794-0.193c-0.434,0-0.744,0.061-0.932,0.182
			c-0.125,0.086-0.188,0.197-0.188,0.334c0,0.117,0.055,0.217,0.164,0.299c0.148,0.109,0.661,0.264,1.538,0.463
			s1.489,0.443,1.837,0.732c0.344,0.293,0.516,0.701,0.516,1.225c0,0.57-0.238,1.061-0.715,1.471s-1.182,0.615-2.115,0.615
			c-0.848,0-1.519-0.172-2.013-0.516S177.27,22.148,177.118,21.558z"/>
		<path d="M189.798,18.95l-1.623,0.293c-0.055-0.324-0.18-0.568-0.373-0.732s-0.443-0.246-0.752-0.246
			c-0.41,0-0.738,0.142-0.982,0.425s-0.365,0.757-0.365,1.421c0,0.738,0.123,1.26,0.371,1.564s0.582,0.457,1,0.457
			c0.312,0,0.568-0.089,0.768-0.267s0.34-0.483,0.422-0.917l1.617,0.275c-0.168,0.742-0.49,1.303-0.967,1.682
			s-1.115,0.568-1.916,0.568c-0.91,0-1.636-0.287-2.177-0.861s-0.812-1.369-0.812-2.385c0-1.027,0.271-1.827,0.814-2.399
			s1.278-0.858,2.204-0.858c0.758,0,1.359,0.163,1.807,0.489S189.603,18.282,189.798,18.95z"/>
		<path d="M192.687,14.743v3.158c0.531-0.621,1.166-0.932,1.904-0.932c0.379,0,0.721,0.07,1.025,0.211s0.533,0.32,0.688,0.539
			s0.26,0.461,0.316,0.727s0.086,0.678,0.086,1.236v3.65h-1.646v-3.287c0-0.652-0.031-1.066-0.094-1.242s-0.174-0.315-0.332-0.419
			s-0.355-0.155-0.594-0.155c-0.273,0-0.518,0.066-0.732,0.199s-0.373,0.333-0.473,0.601s-0.148,0.663-0.148,1.187v3.117h-1.646
			v-8.59H192.687z"/>
		<path d="M197.995,20.134c0-0.547,0.135-1.076,0.404-1.588s0.65-0.902,1.145-1.172s1.047-0.404,1.656-0.404
			c0.941,0,1.713,0.306,2.314,0.917s0.902,1.384,0.902,2.317c0,0.941-0.305,1.722-0.912,2.341s-1.371,0.929-2.293,0.929
			c-0.57,0-1.115-0.129-1.633-0.387s-0.91-0.636-1.18-1.134S197.995,20.849,197.995,20.134z M199.683,20.222
			c0,0.617,0.146,1.09,0.439,1.418s0.654,0.492,1.084,0.492s0.789-0.164,1.08-0.492s0.438-0.805,0.438-1.43
			c0-0.609-0.146-1.078-0.438-1.406s-0.65-0.492-1.08-0.492s-0.791,0.164-1.084,0.492S199.683,19.605,199.683,20.222z"/>
		<path d="M205.325,20.134c0-0.547,0.135-1.076,0.404-1.588s0.65-0.902,1.145-1.172s1.047-0.404,1.656-0.404
			c0.941,0,1.713,0.306,2.314,0.917s0.902,1.384,0.902,2.317c0,0.941-0.305,1.722-0.912,2.341s-1.371,0.929-2.293,0.929
			c-0.57,0-1.115-0.129-1.633-0.387s-0.91-0.636-1.18-1.134S205.325,20.849,205.325,20.134z M207.013,20.222
			c0,0.617,0.146,1.09,0.439,1.418s0.654,0.492,1.084,0.492s0.789-0.164,1.08-0.492s0.438-0.805,0.438-1.43
			c0-0.609-0.146-1.078-0.438-1.406s-0.65-0.492-1.08-0.492s-0.791,0.164-1.084,0.492S207.013,19.605,207.013,20.222z"/>
		<path d="M213.036,23.333v-8.59h1.646v8.59H213.036z"/>
		<path d="M216.687,18.757v-1.646h1.646v1.646H216.687z M216.687,23.333v-1.646h1.646v1.646H216.687z"/>
		<path d="M229.126,18.95l-1.623,0.293c-0.055-0.324-0.18-0.568-0.373-0.732s-0.443-0.246-0.752-0.246
			c-0.41,0-0.738,0.142-0.982,0.425s-0.365,0.757-0.365,1.421c0,0.738,0.123,1.26,0.371,1.564s0.582,0.457,1,0.457
			c0.312,0,0.568-0.089,0.768-0.267s0.34-0.483,0.422-0.917l1.617,0.275c-0.168,0.742-0.49,1.303-0.967,1.682
			s-1.115,0.568-1.916,0.568c-0.91,0-1.637-0.287-2.178-0.861s-0.811-1.369-0.811-2.385c0-1.027,0.271-1.827,0.814-2.399
			s1.277-0.858,2.203-0.858c0.758,0,1.359,0.163,1.807,0.489S228.931,18.282,229.126,18.95z"/>
		<path d="M232.015,14.743v3.158c0.531-0.621,1.166-0.932,1.904-0.932c0.379,0,0.721,0.07,1.025,0.211s0.533,0.32,0.688,0.539
			s0.26,0.461,0.316,0.727s0.086,0.678,0.086,1.236v3.65h-1.646v-3.287c0-0.652-0.031-1.066-0.094-1.242s-0.174-0.315-0.332-0.419
			s-0.355-0.155-0.594-0.155c-0.273,0-0.518,0.066-0.732,0.199s-0.373,0.333-0.473,0.601s-0.148,0.663-0.148,1.187v3.117h-1.646
			v-8.59H232.015z"/>
		<path d="M237.704,16.267v-1.523h1.646v1.523H237.704z M237.704,23.333v-6.223h1.646v6.223H237.704z"/>
		<path d="M241.038,23.333v-8.59h1.646v8.59H241.038z"/>
		<path d="M250.079,23.333h-1.529v-0.914c-0.254,0.355-0.555,0.62-0.9,0.794s-0.693,0.261-1.045,0.261
			c-0.715,0-1.328-0.288-1.838-0.864s-0.764-1.38-0.764-2.411c0-1.055,0.248-1.856,0.744-2.405s1.123-0.823,1.881-0.823
			c0.695,0,1.297,0.289,1.805,0.867v-3.094h1.646V23.333z M245.685,20.087c0,0.664,0.092,1.145,0.275,1.441
			c0.266,0.43,0.637,0.645,1.113,0.645c0.379,0,0.701-0.161,0.967-0.483s0.398-0.804,0.398-1.444c0-0.715-0.129-1.229-0.387-1.544
			s-0.588-0.472-0.99-0.472c-0.391,0-0.719,0.155-0.982,0.466S245.685,19.47,245.685,20.087z"/>
		<path d="M253.279,23.333h-1.646v-6.223h1.529v0.885c0.262-0.418,0.496-0.693,0.705-0.826s0.447-0.199,0.713-0.199
			c0.375,0,0.736,0.104,1.084,0.311l-0.51,1.436c-0.277-0.18-0.535-0.27-0.773-0.27c-0.23,0-0.426,0.063-0.586,0.19
			s-0.287,0.356-0.379,0.688s-0.137,1.027-0.137,2.086V23.333z"/>
		<path d="M259.976,21.353l1.641,0.275c-0.211,0.602-0.545,1.06-1,1.374s-1.023,0.472-1.707,0.472c-1.082,0-1.883-0.354-2.402-1.061
			c-0.41-0.566-0.615-1.281-0.615-2.145c0-1.031,0.27-1.839,0.809-2.423s1.221-0.876,2.045-0.876c0.926,0,1.656,0.306,2.191,0.917
			s0.791,1.548,0.768,2.81h-4.125c0.012,0.488,0.145,0.868,0.398,1.14s0.57,0.407,0.949,0.407c0.258,0,0.475-0.07,0.65-0.211
			S259.886,21.665,259.976,21.353z M260.07,19.689c-0.012-0.477-0.135-0.839-0.369-1.087s-0.52-0.372-0.855-0.372
			c-0.359,0-0.656,0.131-0.891,0.393s-0.35,0.617-0.346,1.066H260.07z"/>
		<path d="M268.706,23.333h-1.646v-3.176c0-0.672-0.035-1.106-0.105-1.304s-0.186-0.351-0.344-0.46s-0.348-0.164-0.57-0.164
			c-0.285,0-0.541,0.078-0.768,0.234s-0.383,0.363-0.467,0.621s-0.125,0.734-0.125,1.43v2.818h-1.646v-6.223h1.529v0.914
			c0.543-0.703,1.227-1.055,2.051-1.055c0.363,0,0.695,0.065,0.996,0.196s0.527,0.298,0.682,0.501s0.262,0.434,0.322,0.691
			s0.092,0.627,0.092,1.107V23.333z"/>
		<path d="M274.941,19.009l-1.494-0.27c0.168-0.602,0.457-1.047,0.867-1.336s1.02-0.434,1.828-0.434
			c0.734,0,1.281,0.087,1.641,0.261s0.611,0.395,0.758,0.662s0.221,0.759,0.221,1.474l-0.018,1.922c0,0.547,0.025,0.95,0.078,1.21
			s0.152,0.538,0.297,0.835h-1.629c-0.043-0.109-0.096-0.271-0.158-0.486c-0.027-0.098-0.047-0.162-0.059-0.193
			c-0.281,0.273-0.582,0.479-0.902,0.615s-0.662,0.205-1.025,0.205c-0.641,0-1.146-0.174-1.516-0.521s-0.553-0.787-0.553-1.318
			c0-0.352,0.084-0.665,0.252-0.94s0.402-0.486,0.705-0.633s0.74-0.274,1.311-0.384c0.77-0.145,1.303-0.279,1.6-0.404v-0.164
			c0-0.316-0.078-0.542-0.234-0.677s-0.451-0.202-0.885-0.202c-0.293,0-0.521,0.058-0.686,0.173S275.042,18.72,274.941,19.009z
			 M277.144,20.345c-0.211,0.07-0.545,0.154-1.002,0.252s-0.756,0.193-0.896,0.287c-0.215,0.152-0.322,0.346-0.322,0.58
			c0,0.23,0.086,0.43,0.258,0.598s0.391,0.252,0.656,0.252c0.297,0,0.58-0.098,0.85-0.293c0.199-0.148,0.33-0.33,0.393-0.545
			c0.043-0.141,0.064-0.408,0.064-0.803V20.345z"/>
		<path d="M280.232,23.743l1.881,0.229c0.031,0.219,0.104,0.369,0.217,0.451c0.156,0.117,0.402,0.176,0.738,0.176
			c0.43,0,0.752-0.064,0.967-0.193c0.145-0.086,0.254-0.225,0.328-0.416c0.051-0.137,0.076-0.389,0.076-0.756v-0.908
			c-0.492,0.672-1.113,1.008-1.863,1.008c-0.836,0-1.498-0.354-1.986-1.061c-0.383-0.559-0.574-1.254-0.574-2.086
			c0-1.043,0.25-1.84,0.752-2.391s1.127-0.826,1.873-0.826c0.77,0,1.404,0.338,1.904,1.014v-0.873h1.541v5.584
			c0,0.734-0.061,1.283-0.182,1.646s-0.291,0.648-0.51,0.855s-0.512,0.369-0.877,0.486s-0.826,0.176-1.385,0.176
			c-1.055,0-1.803-0.181-2.244-0.542s-0.662-0.819-0.662-1.374C280.226,23.888,280.228,23.822,280.232,23.743z M281.702,20.093
			c0,0.66,0.127,1.144,0.383,1.45s0.572,0.46,0.947,0.46c0.402,0,0.742-0.157,1.02-0.472s0.416-0.78,0.416-1.397
			c0-0.645-0.133-1.123-0.398-1.436s-0.602-0.469-1.008-0.469c-0.395,0-0.721,0.153-0.977,0.46S281.702,19.464,281.702,20.093z"/>
		<path d="M291.318,21.353l1.641,0.275c-0.211,0.602-0.545,1.06-1,1.374s-1.023,0.472-1.707,0.472c-1.082,0-1.883-0.354-2.402-1.061
			c-0.41-0.566-0.615-1.281-0.615-2.145c0-1.031,0.27-1.839,0.809-2.423s1.221-0.876,2.045-0.876c0.926,0,1.656,0.306,2.191,0.917
			s0.791,1.548,0.768,2.81h-4.125c0.012,0.488,0.145,0.868,0.398,1.14s0.57,0.407,0.949,0.407c0.258,0,0.475-0.07,0.65-0.211
			S291.228,21.665,291.318,21.353z M291.411,19.689c-0.012-0.477-0.135-0.839-0.369-1.087s-0.52-0.372-0.855-0.372
			c-0.359,0-0.656,0.131-0.891,0.393s-0.35,0.617-0.346,1.066H291.411z"/>
		<path d="M300.095,23.333h-1.529v-0.914c-0.254,0.355-0.555,0.62-0.9,0.794s-0.693,0.261-1.045,0.261
			c-0.715,0-1.328-0.288-1.838-0.864s-0.764-1.38-0.764-2.411c0-1.055,0.248-1.856,0.744-2.405s1.123-0.823,1.881-0.823
			c0.695,0,1.297,0.289,1.805,0.867v-3.094h1.646V23.333z M295.7,20.087c0,0.664,0.092,1.145,0.275,1.441
			c0.266,0.43,0.637,0.645,1.113,0.645c0.379,0,0.701-0.161,0.967-0.483s0.398-0.804,0.398-1.444c0-0.715-0.129-1.229-0.387-1.544
			s-0.588-0.472-0.99-0.472c-0.391,0-0.719,0.155-0.982,0.466S295.7,19.47,295.7,20.087z"/>
		<path d="M304.724,21.124l1.641-0.17c0.047,0.371,0.186,0.665,0.416,0.882s0.496,0.325,0.797,0.325c0.344,0,0.635-0.14,0.873-0.419
			s0.357-0.7,0.357-1.263c0-0.527-0.119-0.923-0.355-1.187s-0.543-0.396-0.922-0.396c-0.473,0-0.896,0.209-1.271,0.627l-1.336-0.193
			l0.844-4.471h4.354v1.541h-3.105l-0.258,1.459c0.367-0.184,0.742-0.275,1.125-0.275c0.73,0,1.35,0.266,1.857,0.797
			s0.762,1.221,0.762,2.068c0,0.707-0.205,1.338-0.615,1.893c-0.559,0.758-1.334,1.137-2.326,1.137
			c-0.793,0-1.439-0.213-1.939-0.639S304.822,21.843,304.724,21.124z"/>
		<path d="M311.538,21.042v-1.646h3.234v1.646H311.538z"/>
		<path d="M319.583,23.333h-1.646v-6.205c-0.602,0.562-1.311,0.979-2.127,1.248v-1.494c0.43-0.141,0.896-0.407,1.4-0.8
			s0.85-0.851,1.037-1.374h1.336V23.333z"/>
		<path d="M327.605,21.804v1.529h-5.771c0.062-0.578,0.25-1.126,0.562-1.644s0.93-1.204,1.852-2.06
			c0.742-0.691,1.197-1.16,1.365-1.406c0.227-0.34,0.34-0.676,0.34-1.008c0-0.367-0.1-0.649-0.297-0.847s-0.469-0.296-0.816-0.296
			c-0.344,0-0.617,0.104-0.82,0.311s-0.32,0.551-0.352,1.031l-1.641-0.164c0.098-0.906,0.404-1.557,0.92-1.951
			s1.16-0.592,1.934-0.592c0.848,0,1.514,0.229,1.998,0.686s0.727,1.025,0.727,1.705c0,0.387-0.07,0.755-0.209,1.104
			s-0.357,0.716-0.658,1.099c-0.199,0.254-0.559,0.619-1.078,1.096s-0.85,0.793-0.988,0.949s-0.25,0.309-0.336,0.457H327.605z"/>
	</g>
	<g>
		<path d="M31.122,240.946c0-0.932,0.096-1.681,0.287-2.248s0.476-1.005,0.854-1.313c0.378-0.308,0.854-0.462,1.426-0.462
			c0.423,0,0.794,0.085,1.112,0.255c0.318,0.171,0.582,0.416,0.79,0.736c0.207,0.32,0.37,0.711,0.488,1.171s0.178,1.08,0.178,1.861
			c0,0.924-0.096,1.669-0.285,2.236c-0.189,0.568-0.474,1.007-0.852,1.316s-0.854,0.465-1.432,0.465
			c-0.759,0-1.354-0.272-1.788-0.816C31.381,243.492,31.122,242.425,31.122,240.946z M32.115,240.946
			c0,1.292,0.151,2.152,0.454,2.58c0.303,0.429,0.676,0.643,1.119,0.643c0.444,0,0.817-0.215,1.12-0.645s0.454-1.289,0.454-2.578
			c0-1.297-0.151-2.157-0.454-2.584c-0.303-0.426-0.679-0.639-1.13-0.639c-0.444,0-0.799,0.188-1.064,0.563
			C32.282,238.767,32.115,239.653,32.115,240.946z"/>
	</g>
	<g>
		<path d="M36.202,215.304v0.929h-5.204c-0.007-0.232,0.03-0.456,0.112-0.671c0.133-0.354,0.345-0.704,0.637-1.048
			c0.292-0.344,0.714-0.741,1.266-1.192c0.855-0.701,1.434-1.258,1.734-1.668c0.301-0.409,0.451-0.797,0.451-1.162
			c0-0.384-0.137-0.707-0.411-0.97c-0.273-0.264-0.631-0.395-1.071-0.395c-0.466,0-0.838,0.14-1.117,0.419s-0.421,0.666-0.424,1.16
			l-0.994-0.103c0.068-0.741,0.324-1.306,0.768-1.694c0.444-0.389,1.041-0.583,1.789-0.583c0.756,0,1.354,0.21,1.794,0.629
			s0.661,0.938,0.661,1.558c0,0.314-0.064,0.625-0.193,0.929c-0.129,0.305-0.344,0.625-0.643,0.962
			c-0.299,0.336-0.796,0.798-1.49,1.386c-0.58,0.486-0.952,0.817-1.117,0.99c-0.165,0.174-0.301,0.349-0.408,0.524H36.202z"/>
	</g>
	<g>
		<path d="M32.609,126.178c-0.401-0.147-0.698-0.356-0.892-0.628s-0.29-0.598-0.29-0.978c0-0.573,0.206-1.055,0.618-1.445
			c0.411-0.39,0.959-0.585,1.643-0.585c0.688,0,1.241,0.2,1.66,0.599c0.419,0.399,0.629,0.886,0.629,1.458
			c0,0.365-0.097,0.683-0.288,0.954c-0.191,0.27-0.482,0.479-0.872,0.625c0.482,0.158,0.851,0.412,1.104,0.763
			c0.252,0.351,0.379,0.77,0.379,1.257c0,0.673-0.238,1.239-0.715,1.697s-1.103,0.688-1.88,0.688s-1.403-0.23-1.88-0.69
			c-0.477-0.46-0.715-1.034-0.715-1.722c0-0.512,0.13-0.941,0.39-1.286C31.759,126.539,32.13,126.304,32.609,126.178z
			 M32.104,128.177c0,0.276,0.065,0.542,0.196,0.8s0.325,0.458,0.583,0.599c0.258,0.142,0.535,0.212,0.832,0.212
			c0.462,0,0.844-0.148,1.145-0.446s0.451-0.675,0.451-1.133c0-0.465-0.155-0.851-0.465-1.155s-0.697-0.457-1.163-0.457
			c-0.455,0-0.832,0.15-1.131,0.451S32.104,127.725,32.104,128.177z M32.416,124.54c0,0.373,0.12,0.677,0.36,0.913
			c0.239,0.236,0.551,0.354,0.934,0.354c0.373,0,0.678-0.117,0.916-0.352c0.238-0.235,0.357-0.522,0.357-0.862
			c0-0.354-0.123-0.652-0.368-0.895c-0.245-0.241-0.55-0.362-0.915-0.362c-0.369,0-0.676,0.118-0.919,0.354
			S32.416,124.211,32.416,124.54z"/>
	</g>
	<g>
		<path d="M36.137,153.097l-0.961,0.075c-0.086-0.38-0.208-0.655-0.365-0.827c-0.262-0.276-0.584-0.414-0.967-0.414
			c-0.308,0-0.578,0.086-0.811,0.258c-0.305,0.223-0.545,0.546-0.721,0.973c-0.175,0.426-0.267,1.033-0.273,1.82
			c0.232-0.354,0.518-0.617,0.854-0.789c0.337-0.172,0.689-0.258,1.059-0.258c0.645,0,1.193,0.237,1.646,0.711
			c0.453,0.475,0.68,1.088,0.68,1.84c0,0.494-0.107,0.953-0.32,1.378c-0.213,0.424-0.506,0.749-0.878,0.975
			s-0.795,0.339-1.268,0.339c-0.806,0-1.463-0.297-1.972-0.89c-0.508-0.592-0.762-1.568-0.762-2.93c0-1.521,0.28-2.628,0.843-3.319
			c0.49-0.602,1.151-0.902,1.981-0.902c0.62,0,1.128,0.174,1.523,0.521C35.822,152.005,36.059,152.485,36.137,153.097z
			 M32.19,156.492c0,0.333,0.07,0.651,0.212,0.956c0.142,0.304,0.34,0.536,0.594,0.695s0.521,0.239,0.8,0.239
			c0.408,0,0.76-0.165,1.053-0.494c0.294-0.33,0.441-0.777,0.441-1.343c0-0.545-0.146-0.974-0.436-1.287
			c-0.29-0.312-0.655-0.47-1.096-0.47c-0.437,0-0.808,0.157-1.111,0.47C32.342,155.572,32.19,155.983,32.19,156.492z"/>
	</g>
	<g>
		<path d="M34.22,187.637v-1.885h-3.416v-0.887l3.593-5.103h0.79v5.103h1.063v0.887h-1.063v1.885H34.22z M34.22,184.866v-3.55
			l-2.466,3.55H34.22z"/>
	</g>
	<g>
		<path d="M28.645,101.853h-0.967v-6.161c-0.232,0.222-0.537,0.444-0.915,0.666s-0.718,0.389-1.019,0.5v-0.935
			c0.541-0.254,1.014-0.562,1.418-0.924c0.405-0.362,0.691-0.712,0.859-1.053h0.623V101.853z"/>
		<path d="M31.122,97.97c0-0.931,0.096-1.68,0.287-2.248c0.191-0.568,0.476-1.005,0.854-1.313c0.378-0.308,0.854-0.462,1.426-0.462
			c0.423,0,0.794,0.085,1.112,0.255c0.318,0.17,0.582,0.416,0.79,0.736c0.207,0.32,0.37,0.71,0.488,1.171
			c0.118,0.46,0.178,1.08,0.178,1.861c0,0.924-0.096,1.669-0.285,2.237c-0.189,0.568-0.474,1.006-0.852,1.316
			c-0.378,0.31-0.854,0.464-1.432,0.464c-0.759,0-1.354-0.272-1.788-0.816C31.381,100.515,31.122,99.449,31.122,97.97z
			 M32.115,97.97c0,1.292,0.151,2.153,0.454,2.581c0.303,0.428,0.676,0.642,1.119,0.642c0.444,0,0.817-0.215,1.12-0.645
			s0.454-1.289,0.454-2.578c0-1.296-0.151-2.157-0.454-2.583s-0.679-0.639-1.13-0.639c-0.444,0-0.799,0.188-1.064,0.564
			C32.282,95.791,32.115,96.677,32.115,97.97z"/>
	</g>
	<g>
		<path d="M28.645,73.258h-0.967v-6.161c-0.232,0.222-0.537,0.444-0.915,0.666s-0.718,0.389-1.019,0.5v-0.935
			c0.541-0.254,1.014-0.562,1.418-0.924c0.405-0.362,0.691-0.712,0.859-1.053h0.623V73.258z"/>
		<path d="M36.202,72.329v0.929h-5.204c-0.007-0.233,0.03-0.457,0.112-0.671c0.133-0.354,0.345-0.704,0.637-1.047
			c0.292-0.344,0.714-0.741,1.266-1.192c0.855-0.702,1.434-1.258,1.734-1.668c0.301-0.41,0.451-0.797,0.451-1.163
			c0-0.383-0.137-0.707-0.411-0.969c-0.273-0.264-0.631-0.395-1.071-0.395c-0.466,0-0.838,0.14-1.117,0.419s-0.421,0.666-0.424,1.16
			l-0.994-0.102c0.068-0.741,0.324-1.306,0.768-1.694c0.444-0.389,1.041-0.583,1.789-0.583c0.756,0,1.354,0.209,1.794,0.628
			s0.661,0.938,0.661,1.558c0,0.315-0.064,0.625-0.193,0.929s-0.344,0.625-0.643,0.961s-0.796,0.798-1.49,1.386
			c-0.58,0.487-0.952,0.817-1.117,0.991c-0.165,0.174-0.301,0.349-0.408,0.524H36.202z"/>
	</g>
	<g>
		<path d="M28.645,44.662h-0.967v-6.161c-0.232,0.222-0.537,0.444-0.915,0.666s-0.718,0.389-1.019,0.5v-0.935
			c0.541-0.254,1.014-0.562,1.418-0.924c0.405-0.362,0.691-0.712,0.859-1.053h0.623V44.662z"/>
		<path d="M34.22,44.662v-1.885h-3.416v-0.886l3.593-5.103h0.79v5.103h1.063v0.886h-1.063v1.885H34.22z M34.22,41.891v-3.55
			l-2.466,3.55H34.22z"/>
	</g>
	<g>
		<path d="M168.131,302.832h-0.967v-6.16c-0.232,0.222-0.537,0.443-0.915,0.666c-0.378,0.222-0.718,0.389-1.019,0.499v-0.935
			c0.541-0.254,1.014-0.562,1.418-0.924c0.405-0.361,0.691-0.712,0.859-1.053h0.623V302.832z"/>
		<path d="M170.753,301.012l0.93-0.086c0.078,0.437,0.229,0.754,0.451,0.95c0.222,0.197,0.506,0.296,0.854,0.296
			c0.297,0,0.558-0.068,0.781-0.204c0.224-0.137,0.407-0.318,0.551-0.546c0.144-0.227,0.264-0.534,0.359-0.921
			c0.098-0.387,0.146-0.78,0.146-1.182c0-0.043-0.002-0.107-0.005-0.193c-0.193,0.309-0.458,0.558-0.793,0.749
			c-0.335,0.192-0.697,0.288-1.088,0.288c-0.651,0-1.203-0.236-1.654-0.709s-0.676-1.096-0.676-1.869
			c0-0.799,0.235-1.441,0.706-1.929c0.471-0.486,1.061-0.73,1.77-0.73c0.512,0,0.98,0.138,1.404,0.414
			c0.425,0.275,0.747,0.668,0.967,1.179c0.221,0.51,0.331,1.249,0.331,2.216c0,1.006-0.109,1.807-0.328,2.403
			c-0.219,0.596-0.543,1.05-0.975,1.361s-0.938,0.468-1.518,0.468c-0.616,0-1.119-0.171-1.51-0.514
			C171.066,302.111,170.832,301.631,170.753,301.012z M174.712,297.536c0-0.555-0.148-0.995-0.443-1.321
			c-0.296-0.325-0.651-0.488-1.066-0.488c-0.43,0-0.804,0.175-1.123,0.526c-0.318,0.351-0.478,0.806-0.478,1.364
			c0,0.501,0.151,0.908,0.454,1.222s0.676,0.47,1.119,0.47c0.448,0,0.816-0.156,1.104-0.47S174.712,298.092,174.712,297.536z"/>
		<path d="M176.87,301.012l0.93-0.086c0.078,0.437,0.229,0.754,0.451,0.95c0.222,0.197,0.506,0.296,0.854,0.296
			c0.297,0,0.558-0.068,0.781-0.204c0.224-0.137,0.407-0.318,0.551-0.546c0.144-0.227,0.264-0.534,0.359-0.921
			c0.098-0.387,0.146-0.78,0.146-1.182c0-0.043-0.002-0.107-0.005-0.193c-0.193,0.309-0.458,0.558-0.793,0.749
			c-0.335,0.192-0.697,0.288-1.088,0.288c-0.651,0-1.203-0.236-1.654-0.709s-0.676-1.096-0.676-1.869
			c0-0.799,0.235-1.441,0.706-1.929c0.471-0.486,1.061-0.73,1.77-0.73c0.512,0,0.98,0.138,1.404,0.414
			c0.425,0.275,0.747,0.668,0.967,1.179c0.221,0.51,0.331,1.249,0.331,2.216c0,1.006-0.109,1.807-0.328,2.403
			c-0.219,0.596-0.543,1.05-0.975,1.361s-0.938,0.468-1.518,0.468c-0.616,0-1.119-0.171-1.51-0.514
			C177.183,302.111,176.949,301.631,176.87,301.012z M180.829,297.536c0-0.555-0.148-0.995-0.443-1.321
			c-0.296-0.325-0.651-0.488-1.066-0.488c-0.43,0-0.804,0.175-1.123,0.526c-0.318,0.351-0.478,0.806-0.478,1.364
			c0,0.501,0.151,0.908,0.454,1.222s0.676,0.47,1.119,0.47c0.448,0,0.816-0.156,1.104-0.47S180.829,298.092,180.829,297.536z"/>
		<path d="M182.842,298.949c0-0.932,0.096-1.681,0.287-2.248s0.476-1.005,0.854-1.313c0.378-0.308,0.854-0.462,1.426-0.462
			c0.422,0,0.793,0.085,1.112,0.255c0.318,0.171,0.582,0.416,0.791,0.736c0.207,0.32,0.369,0.711,0.488,1.171
			c0.117,0.46,0.178,1.08,0.178,1.861c0,0.924-0.096,1.669-0.285,2.236c-0.189,0.568-0.475,1.007-0.852,1.316
			c-0.379,0.31-0.855,0.465-1.432,0.465c-0.759,0-1.354-0.272-1.788-0.816C183.101,301.495,182.842,300.428,182.842,298.949z
			 M183.836,298.949c0,1.292,0.151,2.152,0.454,2.58c0.303,0.429,0.676,0.643,1.119,0.643c0.444,0,0.817-0.215,1.12-0.645
			s0.455-1.289,0.455-2.578c0-1.297-0.152-2.157-0.455-2.584c-0.303-0.426-0.678-0.639-1.129-0.639
			c-0.444,0-0.799,0.188-1.064,0.563C184.003,296.77,183.836,297.656,183.836,298.949z"/>
	</g>
	<g>
		<path d="M227.57,301.903v0.929h-5.204c-0.007-0.232,0.03-0.456,0.112-0.671c0.133-0.354,0.345-0.704,0.637-1.048
			s0.714-0.741,1.266-1.192c0.855-0.701,1.434-1.258,1.734-1.668c0.301-0.409,0.451-0.797,0.451-1.162
			c0-0.384-0.137-0.707-0.411-0.97c-0.273-0.264-0.631-0.395-1.071-0.395c-0.466,0-0.838,0.14-1.117,0.419s-0.421,0.666-0.424,1.16
			l-0.994-0.103c0.068-0.741,0.324-1.306,0.768-1.694c0.444-0.389,1.041-0.583,1.789-0.583c0.756,0,1.354,0.21,1.794,0.629
			s0.661,0.938,0.661,1.558c0,0.314-0.064,0.625-0.193,0.929c-0.129,0.305-0.344,0.625-0.643,0.962
			c-0.299,0.336-0.796,0.798-1.49,1.386c-0.58,0.486-0.952,0.817-1.117,0.99c-0.165,0.174-0.301,0.349-0.408,0.524H227.57z"/>
		<path d="M228.608,298.949c0-0.932,0.096-1.681,0.287-2.248s0.476-1.005,0.854-1.313c0.378-0.308,0.854-0.462,1.426-0.462
			c0.423,0,0.794,0.085,1.112,0.255c0.318,0.171,0.582,0.416,0.79,0.736c0.207,0.32,0.37,0.711,0.488,1.171s0.178,1.08,0.178,1.861
			c0,0.924-0.096,1.669-0.285,2.236c-0.189,0.568-0.474,1.007-0.852,1.316s-0.854,0.465-1.432,0.465
			c-0.759,0-1.354-0.272-1.788-0.816C228.866,301.495,228.608,300.428,228.608,298.949z M229.601,298.949
			c0,1.292,0.151,2.152,0.454,2.58c0.303,0.429,0.676,0.643,1.119,0.643c0.444,0,0.817-0.215,1.12-0.645s0.454-1.289,0.454-2.578
			c0-1.297-0.151-2.157-0.454-2.584c-0.303-0.426-0.679-0.639-1.13-0.639c-0.444,0-0.799,0.188-1.064,0.563
			C229.768,296.77,229.601,297.656,229.601,298.949z"/>
		<path d="M238.365,302.832h-0.967v-6.16c-0.232,0.222-0.537,0.443-0.915,0.666c-0.378,0.222-0.718,0.389-1.019,0.499v-0.935
			c0.541-0.254,1.014-0.562,1.418-0.924c0.405-0.361,0.691-0.712,0.859-1.053h0.623V302.832z"/>
		<path d="M240.842,298.949c0-0.932,0.096-1.681,0.287-2.248s0.476-1.005,0.854-1.313c0.378-0.308,0.854-0.462,1.426-0.462
			c0.423,0,0.794,0.085,1.112,0.255c0.318,0.171,0.582,0.416,0.79,0.736c0.207,0.32,0.37,0.711,0.488,1.171s0.178,1.08,0.178,1.861
			c0,0.924-0.096,1.669-0.285,2.236c-0.189,0.568-0.474,1.007-0.852,1.316s-0.854,0.465-1.432,0.465
			c-0.759,0-1.354-0.272-1.788-0.816C241.101,301.495,240.842,300.428,240.842,298.949z M241.835,298.949
			c0,1.292,0.151,2.152,0.454,2.58c0.303,0.429,0.676,0.643,1.119,0.643c0.444,0,0.817-0.215,1.12-0.645s0.454-1.289,0.454-2.578
			c0-1.297-0.151-2.157-0.454-2.584c-0.303-0.426-0.679-0.639-1.13-0.639c-0.444,0-0.799,0.188-1.064,0.563
			C242.002,296.77,241.835,297.656,241.835,298.949z"/>
	</g>
	<g>
		<path d="M16.187,239.313H9.242v2.594H8.313v-6.241h0.929v2.604h6.945V239.313z"/>
		<path d="M13.335,236.3c-1.056,0-1.839-0.294-2.347-0.881c-0.422-0.49-0.634-1.089-0.634-1.794c0-0.784,0.257-1.425,0.771-1.923
			c0.514-0.498,1.224-0.746,2.13-0.746c0.734,0,1.312,0.109,1.732,0.33c0.42,0.22,0.747,0.54,0.98,0.961s0.349,0.88,0.349,1.378
			c0,0.799-0.256,1.444-0.768,1.937S14.299,236.3,13.335,236.3z M13.335,235.305c0.73,0,1.277-0.159,1.641-0.478
			c0.363-0.318,0.545-0.72,0.545-1.203c0-0.479-0.183-0.879-0.548-1.198c-0.365-0.318-0.922-0.478-1.67-0.478
			c-0.706,0-1.24,0.16-1.603,0.48c-0.364,0.32-0.545,0.719-0.545,1.195c0,0.483,0.181,0.885,0.542,1.203
			S12.605,235.305,13.335,235.305z"/>
		<path d="M15.322,227.711l0.854-0.14c0.057,0.272,0.086,0.516,0.086,0.73c0,0.351-0.056,0.623-0.167,0.816
			s-0.257,0.329-0.438,0.408c-0.181,0.079-0.561,0.118-1.141,0.118h-3.282v0.709h-0.752v-0.709H9.071l-0.58-0.961h1.993v-0.973
			h0.752v0.973h3.335c0.276,0,0.453-0.018,0.532-0.052s0.142-0.089,0.188-0.166s0.07-0.188,0.07-0.331
			C15.36,228.027,15.347,227.887,15.322,227.711z"/>
		<path d="M15.484,223.044c0.304,0.358,0.519,0.703,0.645,1.034s0.188,0.687,0.188,1.065c0,0.627-0.153,1.108-0.459,1.445
			c-0.307,0.337-0.698,0.505-1.174,0.505c-0.279,0-0.534-0.063-0.766-0.19c-0.23-0.127-0.416-0.294-0.556-0.5
			s-0.245-0.438-0.317-0.695c-0.05-0.189-0.099-0.477-0.145-0.859c-0.093-0.78-0.204-1.355-0.333-1.725
			c-0.132-0.003-0.217-0.005-0.252-0.005c-0.394,0-0.671,0.091-0.833,0.274c-0.218,0.246-0.328,0.613-0.328,1.101
			c0,0.455,0.08,0.79,0.239,1.007c0.16,0.217,0.441,0.377,0.846,0.48l-0.129,0.945c-0.405-0.086-0.731-0.227-0.98-0.424
			c-0.249-0.197-0.44-0.481-0.575-0.854c-0.134-0.373-0.201-0.805-0.201-1.295c0-0.487,0.057-0.883,0.172-1.188
			c0.115-0.304,0.259-0.527,0.433-0.671c0.173-0.144,0.393-0.243,0.658-0.301c0.165-0.032,0.462-0.048,0.892-0.048h1.289
			c0.899,0,1.467-0.021,1.706-0.062c0.238-0.041,0.466-0.122,0.685-0.244v1.01C15.987,222.951,15.752,223.015,15.484,223.044z
			 M13.324,223.124c0.143,0.352,0.265,0.878,0.365,1.58c0.057,0.396,0.122,0.678,0.193,0.843s0.176,0.292,0.314,0.382
			c0.138,0.089,0.291,0.134,0.459,0.134c0.258,0,0.473-0.098,0.645-0.293s0.258-0.48,0.258-0.856c0-0.372-0.082-0.703-0.245-0.994
			c-0.163-0.289-0.386-0.503-0.668-0.639c-0.218-0.104-0.541-0.156-0.967-0.156H13.324z"/>
		<path d="M16.187,220.67H8.313v-0.967h7.874V220.67z"/>
		<path d="M16.187,215.148h-5.704v-0.871h0.811c-0.626-0.418-0.94-1.023-0.94-1.814c0-0.344,0.062-0.66,0.186-0.948
			c0.123-0.288,0.285-0.504,0.486-0.647s0.438-0.243,0.714-0.301c0.179-0.036,0.492-0.054,0.94-0.054h3.507v0.967h-3.47
			c-0.394,0-0.688,0.038-0.884,0.112c-0.195,0.076-0.351,0.209-0.467,0.4c-0.117,0.191-0.175,0.416-0.175,0.674
			c0,0.412,0.131,0.768,0.392,1.066s0.757,0.449,1.488,0.449h3.115V215.148z"/>
		<path d="M16.187,205.293h-0.838c0.645,0.443,0.967,1.047,0.967,1.81c0,0.337-0.064,0.65-0.193,0.942s-0.291,0.509-0.486,0.65
			c-0.195,0.142-0.434,0.24-0.717,0.298c-0.19,0.039-0.491,0.06-0.902,0.06h-3.534v-0.967h3.164c0.505,0,0.845-0.021,1.021-0.06
			c0.254-0.061,0.454-0.189,0.599-0.387c0.145-0.197,0.217-0.44,0.217-0.73s-0.074-0.562-0.223-0.816
			c-0.148-0.254-0.351-0.435-0.606-0.54c-0.256-0.105-0.628-0.158-1.115-0.158h-3.056v-0.967h5.704V205.293z"/>
		<path d="M16.187,202.914h-5.704v-0.865h0.8c-0.279-0.179-0.504-0.417-0.674-0.715c-0.17-0.297-0.255-0.635-0.255-1.015
			c0-0.423,0.088-0.769,0.263-1.039s0.421-0.461,0.736-0.572c-0.666-0.451-0.999-1.038-0.999-1.762c0-0.565,0.157-1.001,0.47-1.306
			c0.313-0.304,0.796-0.456,1.448-0.456h3.916v0.962h-3.593c-0.387,0-0.665,0.031-0.835,0.094c-0.17,0.062-0.307,0.176-0.411,0.341
			s-0.156,0.358-0.156,0.58c0,0.401,0.133,0.734,0.4,0.999c0.267,0.265,0.693,0.397,1.281,0.397h3.314v0.967h-3.706
			c-0.43,0-0.752,0.079-0.967,0.236s-0.322,0.415-0.322,0.773c0,0.272,0.072,0.523,0.215,0.755c0.143,0.23,0.353,0.398,0.628,0.502
			s0.673,0.156,1.192,0.156h2.959V202.914z"/>
		<path d="M16.187,192.857v0.897H8.313v-0.967h2.809c-0.512-0.408-0.768-0.929-0.768-1.563c0-0.351,0.071-0.683,0.212-0.996
			c0.142-0.313,0.34-0.571,0.597-0.773c0.256-0.202,0.564-0.36,0.926-0.475c0.362-0.115,0.749-0.172,1.16-0.172
			c0.978,0,1.733,0.241,2.267,0.725s0.8,1.063,0.8,1.74c0,0.673-0.281,1.201-0.843,1.584H16.187z M13.292,192.869
			c0.684,0,1.178-0.094,1.482-0.279c0.498-0.305,0.747-0.717,0.747-1.236c0-0.422-0.184-0.787-0.551-1.096
			c-0.367-0.308-0.914-0.461-1.641-0.461c-0.745,0-1.294,0.147-1.649,0.442c-0.354,0.296-0.532,0.653-0.532,1.071
			c0,0.423,0.184,0.788,0.551,1.096C12.067,192.715,12.597,192.869,13.292,192.869z"/>
		<path d="M14.35,183.727l0.124-0.999c0.583,0.157,1.037,0.449,1.359,0.875c0.322,0.427,0.483,0.971,0.483,1.633
			c0,0.835-0.257,1.496-0.771,1.985c-0.514,0.488-1.235,0.733-2.162,0.733c-0.959,0-1.705-0.248-2.234-0.742
			s-0.795-1.135-0.795-1.922c0-0.764,0.26-1.387,0.779-1.869c0.519-0.484,1.25-0.726,2.191-0.726c0.057,0,0.143,0.002,0.258,0.005
			v4.254c0.626-0.035,1.106-0.213,1.439-0.531s0.5-0.716,0.5-1.192c0-0.354-0.093-0.657-0.279-0.907
			C15.056,184.073,14.759,183.874,14.35,183.727z M12.787,186.902v-3.186c-0.48,0.043-0.84,0.165-1.08,0.365
			c-0.373,0.308-0.559,0.707-0.559,1.197c0,0.444,0.148,0.817,0.446,1.12S12.29,186.869,12.787,186.902z"/>
		<path d="M16.187,181.525h-5.704v-0.869h0.865c-0.405-0.223-0.671-0.428-0.8-0.615c-0.129-0.188-0.193-0.395-0.193-0.621
			c0-0.325,0.104-0.656,0.312-0.993l0.897,0.333c-0.14,0.236-0.209,0.473-0.209,0.709c0,0.211,0.063,0.401,0.19,0.569
			c0.127,0.168,0.304,0.288,0.529,0.36c0.344,0.107,0.72,0.16,1.128,0.16h2.986V181.525z"/>
		<path d="M13.335,175.155c-1.056,0-1.839-0.294-2.347-0.881c-0.422-0.49-0.634-1.089-0.634-1.794c0-0.784,0.257-1.425,0.771-1.923
			c0.514-0.498,1.224-0.746,2.13-0.746c0.734,0,1.312,0.109,1.732,0.33c0.42,0.22,0.747,0.54,0.98,0.961s0.349,0.88,0.349,1.378
			c0,0.799-0.256,1.444-0.768,1.937S14.299,175.155,13.335,175.155z M13.335,174.161c0.73,0,1.277-0.159,1.641-0.478
			c0.363-0.318,0.545-0.72,0.545-1.203c0-0.479-0.183-0.879-0.548-1.198c-0.365-0.318-0.922-0.478-1.67-0.478
			c-0.706,0-1.24,0.16-1.603,0.48c-0.364,0.32-0.545,0.719-0.545,1.195c0,0.483,0.181,0.885,0.542,1.203
			S12.605,174.161,13.335,174.161z"/>
		<path d="M16.187,168.446h-4.952v0.854h-0.752v-0.854H9.876c-0.383,0-0.668-0.034-0.854-0.103c-0.25-0.093-0.454-0.257-0.609-0.491
			c-0.156-0.234-0.234-0.562-0.234-0.985c0-0.272,0.032-0.573,0.097-0.902l0.843,0.145c-0.036,0.201-0.054,0.391-0.054,0.57
			c0,0.293,0.062,0.501,0.188,0.623c0.125,0.121,0.36,0.182,0.704,0.182h0.526v-1.111h0.752v1.111h4.952V168.446z"/>
		<path d="M15.322,160.455l0.854-0.14c0.057,0.272,0.086,0.516,0.086,0.73c0,0.351-0.056,0.623-0.167,0.816
			s-0.257,0.329-0.438,0.408c-0.181,0.079-0.561,0.118-1.141,0.118h-3.282v0.709h-0.752v-0.709H9.071l-0.58-0.961h1.993v-0.973
			h0.752v0.973h3.335c0.276,0,0.453-0.018,0.532-0.052s0.142-0.089,0.188-0.166s0.07-0.188,0.07-0.331
			C15.36,160.771,15.347,160.631,15.322,160.455z"/>
		<path d="M16.187,159.519h-5.704v-0.869h0.865c-0.405-0.223-0.671-0.428-0.8-0.615c-0.129-0.188-0.193-0.395-0.193-0.621
			c0-0.325,0.104-0.656,0.312-0.993l0.897,0.333c-0.14,0.236-0.209,0.473-0.209,0.709c0,0.211,0.063,0.401,0.19,0.569
			c0.127,0.168,0.304,0.288,0.529,0.36c0.344,0.107,0.72,0.16,1.128,0.16h2.986V159.519z"/>
		<path d="M9.425,155.841H8.313v-0.967h1.112V155.841z M16.187,155.841h-5.704v-0.967h5.704V155.841z"/>
		<path d="M18.373,153.402h-7.89v-0.881h0.741c-0.29-0.208-0.508-0.442-0.652-0.704c-0.146-0.262-0.218-0.578-0.218-0.95
			c0-0.487,0.125-0.917,0.376-1.289c0.25-0.373,0.604-0.654,1.061-0.844c0.457-0.189,0.957-0.285,1.501-0.285
			c0.583,0,1.109,0.105,1.577,0.314c0.467,0.21,0.825,0.514,1.074,0.913c0.249,0.399,0.373,0.819,0.373,1.26
			c0,0.322-0.068,0.611-0.204,0.867s-0.308,0.467-0.516,0.632h2.777V153.402z M13.367,152.526c0.734,0,1.276-0.148,1.627-0.446
			c0.351-0.297,0.526-0.656,0.526-1.079c0-0.43-0.182-0.798-0.545-1.104c-0.364-0.307-0.927-0.46-1.689-0.46
			c-0.727,0-1.271,0.15-1.633,0.449s-0.542,0.656-0.542,1.071c0,0.412,0.192,0.776,0.578,1.093
			C12.074,152.368,12.634,152.526,13.367,152.526z"/>
		<path d="M14.485,147.672l-0.15-0.957c0.383-0.053,0.677-0.203,0.881-0.448s0.306-0.588,0.306-1.028
			c0-0.444-0.09-0.773-0.271-0.988c-0.181-0.215-0.393-0.322-0.636-0.322c-0.218,0-0.39,0.095-0.516,0.285
			c-0.086,0.132-0.195,0.461-0.328,0.988c-0.179,0.709-0.334,1.2-0.465,1.474c-0.13,0.274-0.312,0.481-0.542,0.623
			c-0.231,0.142-0.486,0.212-0.766,0.212c-0.254,0-0.49-0.058-0.706-0.174c-0.217-0.116-0.397-0.275-0.54-0.476
			c-0.111-0.15-0.205-0.355-0.282-0.615c-0.077-0.26-0.115-0.538-0.115-0.835c0-0.447,0.064-0.841,0.193-1.179
			c0.129-0.339,0.304-0.589,0.523-0.749c0.221-0.162,0.515-0.272,0.884-0.334l0.129,0.945c-0.293,0.043-0.523,0.168-0.688,0.374
			s-0.247,0.497-0.247,0.872c0,0.444,0.073,0.762,0.22,0.951s0.319,0.285,0.516,0.285c0.125,0,0.238-0.04,0.338-0.119
			c0.104-0.078,0.19-0.202,0.258-0.37c0.036-0.097,0.118-0.382,0.247-0.854c0.183-0.684,0.332-1.16,0.448-1.431
			c0.117-0.271,0.286-0.482,0.508-0.637s0.498-0.231,0.827-0.231c0.322,0,0.626,0.095,0.91,0.282
			c0.285,0.188,0.505,0.46,0.661,0.813c0.155,0.355,0.233,0.756,0.233,1.203c0,0.742-0.154,1.307-0.462,1.695
			S15.09,147.564,14.485,147.672z"/>
		<path d="M18.373,138.728h-7.89v-0.881h0.741c-0.29-0.208-0.508-0.442-0.652-0.704c-0.146-0.262-0.218-0.578-0.218-0.95
			c0-0.487,0.125-0.917,0.376-1.289c0.25-0.373,0.604-0.654,1.061-0.844c0.457-0.189,0.957-0.285,1.501-0.285
			c0.583,0,1.109,0.105,1.577,0.314c0.467,0.21,0.825,0.514,1.074,0.913c0.249,0.399,0.373,0.819,0.373,1.26
			c0,0.322-0.068,0.611-0.204,0.867s-0.308,0.467-0.516,0.632h2.777V138.728z M13.367,137.852c0.734,0,1.276-0.148,1.627-0.446
			c0.351-0.297,0.526-0.656,0.526-1.079c0-0.43-0.182-0.798-0.545-1.104c-0.364-0.307-0.927-0.46-1.689-0.46
			c-0.727,0-1.271,0.15-1.633,0.449s-0.542,0.656-0.542,1.071c0,0.412,0.192,0.776,0.578,1.093
			C12.074,137.694,12.634,137.852,13.367,137.852z"/>
		<path d="M14.35,128.706l0.124-0.999c0.583,0.157,1.037,0.449,1.359,0.875c0.322,0.427,0.483,0.971,0.483,1.633
			c0,0.835-0.257,1.496-0.771,1.985c-0.514,0.488-1.235,0.733-2.162,0.733c-0.959,0-1.705-0.248-2.234-0.742
			s-0.795-1.135-0.795-1.922c0-0.764,0.26-1.387,0.779-1.869c0.519-0.484,1.25-0.726,2.191-0.726c0.057,0,0.143,0.002,0.258,0.005
			v4.254c0.626-0.035,1.106-0.213,1.439-0.531s0.5-0.716,0.5-1.192c0-0.354-0.093-0.657-0.279-0.907
			C15.056,129.052,14.759,128.852,14.35,128.706z M12.787,131.881v-3.186c-0.48,0.043-0.84,0.165-1.08,0.365
			c-0.373,0.308-0.559,0.707-0.559,1.197c0,0.444,0.148,0.817,0.446,1.12S12.29,131.847,12.787,131.881z"/>
		<path d="M16.187,126.504h-5.704v-0.869h0.865c-0.405-0.223-0.671-0.428-0.8-0.615c-0.129-0.188-0.193-0.395-0.193-0.621
			c0-0.325,0.104-0.656,0.312-0.993l0.897,0.333c-0.14,0.236-0.209,0.473-0.209,0.709c0,0.211,0.063,0.401,0.19,0.569
			c0.127,0.168,0.304,0.288,0.529,0.36c0.344,0.107,0.72,0.16,1.128,0.16h2.986V126.504z"/>
		<path d="M18.384,119.817l-0.908,0.107c0.057-0.212,0.086-0.396,0.086-0.554c0-0.215-0.036-0.387-0.107-0.516
			s-0.172-0.234-0.301-0.317c-0.097-0.061-0.336-0.159-0.72-0.295c-0.054-0.018-0.132-0.047-0.236-0.086l-5.715,2.164v-1.041
			l3.303-1.188c0.419-0.154,0.859-0.292,1.321-0.414c-0.444-0.11-0.877-0.243-1.3-0.396l-3.325-1.22v-0.967l5.801,2.17
			c0.626,0.232,1.058,0.413,1.294,0.542c0.319,0.172,0.552,0.369,0.701,0.592c0.149,0.222,0.223,0.486,0.223,0.795
			C18.502,119.38,18.463,119.588,18.384,119.817z"/>
		<path d="M14.35,110.369l0.124-0.999c0.583,0.157,1.037,0.449,1.359,0.875c0.322,0.427,0.483,0.971,0.483,1.633
			c0,0.835-0.257,1.496-0.771,1.985c-0.514,0.488-1.235,0.733-2.162,0.733c-0.959,0-1.705-0.248-2.234-0.742
			s-0.795-1.135-0.795-1.922c0-0.764,0.26-1.387,0.779-1.869c0.519-0.484,1.25-0.726,2.191-0.726c0.057,0,0.143,0.002,0.258,0.005
			v4.254c0.626-0.035,1.106-0.213,1.439-0.531s0.5-0.716,0.5-1.192c0-0.354-0.093-0.657-0.279-0.907
			C15.056,110.715,14.759,110.515,14.35,110.369z M12.787,113.544v-3.186c-0.48,0.043-0.84,0.165-1.08,0.365
			c-0.373,0.308-0.559,0.707-0.559,1.197c0,0.444,0.148,0.817,0.446,1.12S12.29,113.511,12.787,113.544z"/>
		<path d="M15.484,104.433c0.304,0.358,0.519,0.703,0.645,1.034s0.188,0.687,0.188,1.065c0,0.627-0.153,1.108-0.459,1.445
			c-0.307,0.337-0.698,0.505-1.174,0.505c-0.279,0-0.534-0.063-0.766-0.19c-0.23-0.127-0.416-0.294-0.556-0.5
			s-0.245-0.438-0.317-0.695c-0.05-0.189-0.099-0.477-0.145-0.859c-0.093-0.78-0.204-1.355-0.333-1.725
			c-0.132-0.003-0.217-0.005-0.252-0.005c-0.394,0-0.671,0.091-0.833,0.274c-0.218,0.246-0.328,0.613-0.328,1.101
			c0,0.455,0.08,0.79,0.239,1.007c0.16,0.217,0.441,0.377,0.846,0.48l-0.129,0.945c-0.405-0.086-0.731-0.227-0.98-0.424
			c-0.249-0.197-0.44-0.481-0.575-0.854c-0.134-0.373-0.201-0.805-0.201-1.295c0-0.487,0.057-0.883,0.172-1.188
			c0.115-0.304,0.259-0.527,0.433-0.671c0.173-0.144,0.393-0.243,0.658-0.301c0.165-0.032,0.462-0.048,0.892-0.048h1.289
			c0.899,0,1.467-0.021,1.706-0.062c0.238-0.041,0.466-0.122,0.685-0.244v1.01C15.987,104.341,15.752,104.405,15.484,104.433z
			 M13.324,104.513c0.143,0.352,0.265,0.878,0.365,1.58c0.057,0.396,0.122,0.678,0.193,0.843s0.176,0.292,0.314,0.382
			c0.138,0.089,0.291,0.134,0.459,0.134c0.258,0,0.473-0.098,0.645-0.293s0.258-0.48,0.258-0.856c0-0.372-0.082-0.703-0.245-0.994
			c-0.163-0.289-0.386-0.503-0.668-0.639c-0.218-0.104-0.541-0.156-0.967-0.156H13.324z"/>
		<path d="M16.187,102.049h-5.704v-0.869h0.865c-0.405-0.223-0.671-0.428-0.8-0.615c-0.129-0.188-0.193-0.395-0.193-0.621
			c0-0.325,0.104-0.656,0.312-0.993l0.897,0.333c-0.14,0.236-0.209,0.473-0.209,0.709c0,0.211,0.063,0.401,0.19,0.569
			c0.127,0.168,0.304,0.288,0.529,0.36c0.344,0.107,0.72,0.16,1.128,0.16h2.986V102.049z"/>
		<path d="M18.502,93.472c-0.673,0.533-1.461,0.984-2.363,1.354c-0.902,0.368-1.837,0.553-2.804,0.553
			c-0.852,0-1.668-0.138-2.449-0.414c-0.906-0.322-1.808-0.819-2.707-1.492v-0.693c0.745,0.434,1.276,0.72,1.595,0.859
			c0.494,0.219,1.01,0.391,1.547,0.516c0.669,0.154,1.343,0.23,2.02,0.23c1.722,0,3.443-0.535,5.162-1.605V93.472z"/>
		<path d="M9.425,91.65H8.313v-0.967h1.112V91.65z M16.187,91.65h-5.704v-0.967h5.704V91.65z"/>
		<path d="M16.187,89.213h-5.704v-0.871h0.811c-0.626-0.418-0.94-1.023-0.94-1.814c0-0.344,0.062-0.66,0.186-0.948
			c0.123-0.288,0.285-0.504,0.486-0.647s0.438-0.243,0.714-0.301c0.179-0.036,0.492-0.054,0.94-0.054h3.507v0.967h-3.47
			c-0.394,0-0.688,0.038-0.884,0.112c-0.195,0.076-0.351,0.209-0.467,0.4c-0.117,0.191-0.175,0.416-0.175,0.674
			c0,0.412,0.131,0.768,0.392,1.066s0.757,0.449,1.488,0.449h3.115V89.213z"/>
		<path d="M16.187,80.039h-5.704v-0.865h0.8c-0.279-0.179-0.504-0.417-0.674-0.715c-0.17-0.297-0.255-0.635-0.255-1.015
			c0-0.423,0.088-0.769,0.263-1.039s0.421-0.461,0.736-0.572c-0.666-0.451-0.999-1.038-0.999-1.762c0-0.565,0.157-1.001,0.47-1.306
			c0.313-0.304,0.796-0.456,1.448-0.456h3.916v0.962h-3.593c-0.387,0-0.665,0.031-0.835,0.094c-0.17,0.062-0.307,0.176-0.411,0.341
			s-0.156,0.358-0.156,0.58c0,0.401,0.133,0.734,0.4,0.999c0.267,0.265,0.693,0.397,1.281,0.397h3.314v0.967h-3.706
			c-0.43,0-0.752,0.079-0.967,0.236s-0.322,0.415-0.322,0.773c0,0.272,0.072,0.523,0.215,0.755c0.143,0.23,0.353,0.398,0.628,0.502
			s0.673,0.156,1.192,0.156h2.959V80.039z"/>
		<path d="M9.425,70.87H8.313v-0.967h1.112V70.87z M16.187,70.87h-5.704v-0.967h5.704V70.87z"/>
		<path d="M16.187,68.453H8.313v-0.967h7.874V68.453z"/>
		<path d="M16.187,66.01H8.313v-0.967h7.874V66.01z"/>
		<path d="M9.425,63.539H8.313v-0.967h1.112V63.539z M16.187,63.539h-5.704v-0.967h5.704V63.539z"/>
		<path d="M13.335,61.46c-1.056,0-1.839-0.294-2.347-0.881c-0.422-0.49-0.634-1.089-0.634-1.794c0-0.784,0.257-1.425,0.771-1.923
			c0.514-0.498,1.224-0.746,2.13-0.746c0.734,0,1.312,0.109,1.732,0.33c0.42,0.22,0.747,0.54,0.98,0.961s0.349,0.88,0.349,1.378
			c0,0.799-0.256,1.444-0.768,1.937S14.299,61.46,13.335,61.46z M13.335,60.466c0.73,0,1.277-0.159,1.641-0.478
			c0.363-0.318,0.545-0.72,0.545-1.203c0-0.479-0.183-0.879-0.548-1.198c-0.365-0.318-0.922-0.478-1.67-0.478
			c-0.706,0-1.24,0.16-1.603,0.48c-0.364,0.32-0.545,0.719-0.545,1.195c0,0.483,0.181,0.885,0.542,1.203
			S12.605,60.466,13.335,60.466z"/>
		<path d="M16.187,54.982h-5.704v-0.871h0.811c-0.626-0.418-0.94-1.023-0.94-1.814c0-0.344,0.062-0.66,0.186-0.948
			c0.123-0.288,0.285-0.504,0.486-0.647s0.438-0.243,0.714-0.301c0.179-0.036,0.492-0.054,0.94-0.054h3.507v0.967h-3.47
			c-0.394,0-0.688,0.038-0.884,0.112c-0.195,0.076-0.351,0.209-0.467,0.4c-0.117,0.191-0.175,0.416-0.175,0.674
			c0,0.412,0.131,0.768,0.392,1.066s0.757,0.449,1.488,0.449h3.115V54.982z"/>
		<path d="M14.485,49.252l-0.15-0.957c0.383-0.053,0.677-0.203,0.881-0.448s0.306-0.588,0.306-1.028c0-0.444-0.09-0.773-0.271-0.988
			c-0.181-0.215-0.393-0.322-0.636-0.322c-0.218,0-0.39,0.095-0.516,0.285c-0.086,0.132-0.195,0.461-0.328,0.988
			c-0.179,0.709-0.334,1.2-0.465,1.474c-0.13,0.274-0.312,0.481-0.542,0.623c-0.231,0.142-0.486,0.212-0.766,0.212
			c-0.254,0-0.49-0.058-0.706-0.174c-0.217-0.116-0.397-0.275-0.54-0.476c-0.111-0.15-0.205-0.355-0.282-0.615
			c-0.077-0.26-0.115-0.538-0.115-0.835c0-0.447,0.064-0.841,0.193-1.179c0.129-0.339,0.304-0.589,0.523-0.749
			c0.221-0.162,0.515-0.272,0.884-0.334l0.129,0.945c-0.293,0.043-0.523,0.168-0.688,0.374s-0.247,0.497-0.247,0.872
			c0,0.444,0.073,0.762,0.22,0.951s0.319,0.285,0.516,0.285c0.125,0,0.238-0.04,0.338-0.119c0.104-0.078,0.19-0.202,0.258-0.37
			c0.036-0.097,0.118-0.382,0.247-0.854c0.183-0.684,0.332-1.16,0.448-1.431c0.117-0.271,0.286-0.482,0.508-0.637
			s0.498-0.231,0.827-0.231c0.322,0,0.626,0.095,0.91,0.282c0.285,0.188,0.505,0.46,0.661,0.813
			c0.155,0.355,0.233,0.756,0.233,1.203c0,0.742-0.154,1.307-0.462,1.695S15.09,49.144,14.485,49.252z"/>
		<path d="M18.502,42.73v0.693c-1.719-1.07-3.439-1.605-5.162-1.605c-0.673,0-1.341,0.076-2.003,0.23
			c-0.537,0.122-1.053,0.292-1.547,0.51c-0.322,0.141-0.859,0.429-1.611,0.865V42.73c0.899-0.673,1.801-1.17,2.707-1.492
			c0.781-0.276,1.597-0.414,2.449-0.414c0.967,0,1.901,0.186,2.804,0.556C17.041,41.751,17.829,42.201,18.502,42.73z"/>
	</g>
	<g>
	</g>
	<g>
	</g>
	<g>
	</g>
	<g>
	</g>
	<g>
	</g>
	<g>
	</g>
</g>
</svg>
